<?xml version="1.0" standalone="yes"?>
<svg xmlns="http://www.w3.org/2000/svg" width="600" height="600">
<path style="fill:#01655b; stroke:none;" d="M0 0L0 600L600 600L600 0L0 0z"/>
<path style="fill:#5f918b; stroke:none;" d="M208 232L208 233L214 233L208 232M344 234L344 235L350 233L344 234z"/>
<path style="fill:#91afab; stroke:none;" d="M350 232L351 233L350 232z"/>
<path style="fill:#5f918b; stroke:none;" d="M351 232L351 233L357 238L358 238L351 232M384.667 232.333L385.333 232.667L384.667 232.333z"/>
<path style="fill:#91afab; stroke:none;" d="M386 232L386 233L389 233L386 232z"/>
<path style="fill:#5f918b; stroke:none;" d="M389.667 232.333L390.333 232.667L389.667 232.333M205 233L203 237L207 233L205 233z"/>
<path style="fill:#91afab; stroke:none;" d="M207 233L208 234L207 233z"/>
<path style="fill:#b1c5c3; stroke:none;" d="M208 233L208 234L213 234L208 233z"/>
<path style="fill:#91afab; stroke:none;" d="M213 233L213 234L217 236L213 233z"/>
<path style="fill:#5f918b; stroke:none;" d="M215 233L216 234L215 233z"/>
<path style="fill:#91afab; stroke:none;" d="M347 233L348 234L347 233z"/>
<path style="fill:#b1c5c3; stroke:none;" d="M348 233L348 234L353 234L348 233z"/>
<path style="fill:#91afab; stroke:none;" d="M353 233L354 234L353 233z"/>
<path style="fill:#5f918b; stroke:none;" d="M382 233L381 235L382 233z"/>
<path style="fill:#91afab; stroke:none;" d="M383.667 233.333L384.333 233.667L383.667 233.333z"/>
<path style="fill:#b1c5c3; stroke:none;" d="M385 233L385 234L391 234L385 233z"/>
<path style="fill:#91afab; stroke:none;" d="M391 233L392 234L391 233z"/>
<path style="fill:#5f918b; stroke:none;" d="M392 233L396 241L397 241L392 233z"/>
<path style="fill:#b1c5c3; stroke:none;" d="M206 234L204 237L206 234z"/>
<path style="fill:#f8fbfb; stroke:none;" d="M259 339C268.411 363.289 288.156 347.745 303 342C306.371 350.694 314.963 355.255 323.826 351.235C326.838 349.87 330.2 344.935 333.83 346.252C339.024 348.136 340.225 354.363 347 353.377C354.353 352.306 359.355 340.129 365.091 340.203C369.432 340.259 372.813 347.893 378 348.775C388.388 350.544 392.692 340.448 400.985 340.346C405.245 340.293 407.212 346.507 411.043 347.951C417.654 350.441 421.895 343.569 427 341C427.282 345.839 428.771 354.867 424.682 358.447C421.226 361.472 414.247 360 410 360C395.919 359.999 375.65 362.027 375.158 381C374.677 399.564 397.164 401.533 410 397.262C418.684 394.372 426.243 388.698 431.2 381C433.504 377.422 434.45 372.518 437.429 369.47C443.722 363.032 452.201 360.585 457.91 352.961C459.577 350.734 470.449 331.115 460.169 333.752C457.056 334.55 455.523 338.897 453.874 341.285C450.273 346.503 446.03 351.157 441 355C437.262 339.117 444.569 316.993 446.791 301C447.355 296.938 448.274 283.308 440.315 286.622C431.509 290.288 432.591 313.23 428.351 321C426.675 324.072 422.633 330.331 418.343 328.994C407.598 325.645 417.281 302.736 417.896 296C418.341 291.122 416.978 284.211 410.34 286.519C405.972 288.037 404.76 294.098 403.885 298C401.595 308.214 401.525 318.068 395.275 326.996C392.8 330.533 387.295 338.026 382.133 335.124C376.261 331.822 377.974 321.542 378.001 316C378.094 297.01 390.813 277.724 394.551 259C396.053 251.476 399.274 233.678 387 234.074C377.587 234.377 375.591 245.705 373.986 253C369.754 272.234 369.763 293.189 364.099 312C362.75 316.48 355.759 336.829 349.065 334.669C341.248 332.147 345.367 321.28 345.921 316C347.992 296.268 352.942 276.527 356.463 257C357.559 250.919 361.145 233.428 349.997 234.207C343.721 234.645 341.157 241.998 339.394 247C334.711 260.291 336.324 274.838 332.566 287.981C330.617 294.8 318.251 293.754 313.015 298.225C300.429 308.968 301.31 334.299 283 339.481C277.774 340.961 267.386 334.737 271.082 328.433C273.686 323.991 283.649 323.428 287.696 319.62C299.908 308.13 296.997 285.327 278 286.019C261.011 286.637 259.664 304.693 255.287 317C253.909 320.875 249.844 330.955 244.229 329.387C237.332 327.462 245.152 312.361 244.823 308C244.008 297.185 233.424 301.392 228.603 295.682C225.754 292.307 228.088 286.117 221.956 286.117C210.811 286.117 215.535 300.47 212.291 307C204.341 323.005 184.95 343.735 165 336.892C131.524 325.41 145.675 255.73 177 250.394C195.352 247.268 189.342 266.514 189.043 276C188.865 281.656 192.289 287.741 198.811 283.972C202.52 281.829 203.343 276.759 204.495 273C207.526 263.117 212.507 254.567 216.009 245C217.148 241.889 217.541 237.202 214.427 235.028C208.077 230.593 204.083 239.748 198.989 241.069C195.082 242.083 190.706 238.512 186.996 237.599C181.43 236.229 173.44 236.243 168 238.054C137.396 248.244 127.923 287.613 131.87 316C133.806 329.93 139.436 344.694 153 351.043C174.581 361.146 198.198 347.937 211.711 330.985C215.188 326.624 219.716 312.871 225.1 311.346C228.547 310.369 230.294 314.232 229.986 317.001C229.024 325.647 222.765 337.099 230.228 344.786C240.058 354.911 250.054 343.099 259 339z"/>
<path style="fill:#5f918b; stroke:none;" d="M216 234L217 235L216 234z"/>
<path style="fill:#91afab; stroke:none;" d="M345 234L344 236L345 234z"/>
<path style="fill:#b1c5c3; stroke:none;" d="M346 234L347 235L346 234M354 234L355 235L354 234M382 234L383 235L382 234M392 234L393 235L392 234z"/>
<path style="fill:#5f918b; stroke:none;" d="M168 236L168 237L189 237C183.125 233.481 174.466 234.8 168 236z"/>
<path style="fill:#b1c5c3; stroke:none;" d="M215 235L216 236L215 235z"/>
<path style="fill:#5f918b; stroke:none;" d="M217 235L217 246L218 246L217 235z"/>
<path style="fill:#b1c5c3; stroke:none;" d="M345 235L346 236L345 235M355 235L356 236L355 235z"/>
<path style="fill:#5f918b; stroke:none;" d="M379 235L378 237L379 235z"/>
<path style="fill:#91afab; stroke:none;" d="M380 235L381 236L380 235z"/>
<path style="fill:#b1c5c3; stroke:none;" d="M381 235L382 236L381 235M393 235L394 236L393 235z"/>
<path style="fill:#91afab; stroke:none;" d="M171 236L171 237L174 237L171 236z"/>
<path style="fill:#b1c5c3; stroke:none;" d="M174 236L174 237L183 237L174 236z"/>
<path style="fill:#91afab; stroke:none;" d="M183 236L183 237L186 237L183 236z"/>
<path style="fill:#b1c5c3; stroke:none;" d="M216 236L217 237L216 236z"/>
<path style="fill:#5f918b; stroke:none;" d="M343 236L341 239L343 236z"/>
<path style="fill:#b1c5c3; stroke:none;" d="M344 236L345 237L344 236z"/>
<path style="fill:#91afab; stroke:none;" d="M356 236L357 237L356 236M379 236L378 238L379 236z"/>
<path style="fill:#b1c5c3; stroke:none;" d="M394.333 236.667L394.667 237.333L394.333 236.667z"/>
<path style="fill:#5f918b; stroke:none;" d="M161 239L161 240L167 238L161 239z"/>
<path style="fill:#91afab; stroke:none;" d="M167 237L168 238L167 237z"/>
<path style="fill:#b1c5c3; stroke:none;" d="M168 237L169 238L168 237M187 237L187 238L191 239L191 238L187 237z"/>
<path style="fill:#91afab; stroke:none;" d="M189 237L190 238L189 237z"/>
<path style="fill:#5f918b; stroke:none;" d="M190 237L191 238L190 237z"/>
<path style="fill:#91afab; stroke:none;" d="M203 237L202 239L203 237M217 237L218 238L217 237z"/>
<path style="fill:#b1c5c3; stroke:none;" d="M343 237L344 238L343 237M356 237L357 238L356 237M379 237L380 238L379 237z"/>
<path style="fill:#91afab; stroke:none;" d="M165 238L166 239L165 238z"/>
<path style="fill:#b1c5c3; stroke:none;" d="M166.667 238.333L167.333 238.667L166.667 238.333z"/>
<path style="fill:#91afab; stroke:none;" d="M191 238L192 239L191 238z"/>
<path style="fill:#5f918b; stroke:none;" d="M192 238L192 239L195 240L192 238M201.333 238.667L201.667 239.333L201.333 238.667z"/>
<path style="fill:#b1c5c3; stroke:none;" d="M203 238L204 239L203 238M217 238L217 243L218 243L217 238z"/>
<path style="fill:#91afab; stroke:none;" d="M342 238L341 240L342 238M357 238L358 239L357 238z"/>
<path style="fill:#5f918b; stroke:none;" d="M377 238L376 241L377 241L377 238z"/>
<path style="fill:#b1c5c3; stroke:none;" d="M378 238L377 241L378 238z"/>
<path style="fill:#91afab; stroke:none;" d="M395 238L396 239L395 238z"/>
<path style="fill:#b1c5c3; stroke:none;" d="M163 239L164 240L163 239z"/>
<path style="fill:#91afab; stroke:none;" d="M193 239L194 240L193 239z"/>
<path style="fill:#b1c5c3; stroke:none;" d="M202 239L203 240L202 239M342 239L343 240L342 239M357.333 239.667L357.667 240.333L357.333 239.667z"/>
<path style="fill:#5f918b; stroke:none;" d="M358 239L358 255L359 255L358 239z"/>
<path style="fill:#91afab; stroke:none;" d="M377 239L378 240L377 239z"/>
<path style="fill:#b1c5c3; stroke:none;" d="M395.333 239.667L395.667 240.333L395.333 239.667z"/>
<path style="fill:#5f918b; stroke:none;" d="M159 240L158 242L159 240z"/>
<path style="fill:#91afab; stroke:none;" d="M160 240L161 241L160 240z"/>
<path style="fill:#b1c5c3; stroke:none;" d="M161.667 240.333L162.333 240.667L161.667 240.333M193.667 240.333L194.333 240.667L193.667 240.333z"/>
<path style="fill:#91afab; stroke:none;" d="M195 240L196 241L195 240z"/>
<path style="fill:#5f918b; stroke:none;" d="M196 240L196 241L200 241L196 240z"/>
<path style="fill:#91afab; stroke:none;" d="M200 240L201 241L200 240z"/>
<path style="fill:#b1c5c3; stroke:none;" d="M201 240L202 241L201 240z"/>
<path style="fill:#5f918b; stroke:none;" d="M340 240L339 244L340 244L340 240z"/>
<path style="fill:#b1c5c3; stroke:none;" d="M341.333 240.667L341.667 241.333L341.333 240.667z"/>
<path style="fill:#91afab; stroke:none;" d="M159 241L160 242L159 241z"/>
<path style="fill:#b1c5c3; stroke:none;" d="M196 241L197 242L196 241z"/>
<path style="fill:#91afab; stroke:none;" d="M197.667 241.333L198.333 241.667L197.667 241.333z"/>
<path style="fill:#b1c5c3; stroke:none;" d="M199 241L200 242L199 241z"/>
<path style="fill:#91afab; stroke:none;" d="M376 241L377 242L376 241M396 241L396 253L397 253L396 241z"/>
<path style="fill:#5f918b; stroke:none;" d="M156 242L154 245L156 242z"/>
<path style="fill:#91afab; stroke:none;" d="M157 242L156 244L157 242z"/>
<path style="fill:#b1c5c3; stroke:none;" d="M158 242L159 243L158 242M340.333 242.667L340.667 243.333L340.333 242.667z"/>
<path style="fill:#5f918b; stroke:none;" d="M375 242L376 243L375 242z"/>
<path style="fill:#b1c5c3; stroke:none;" d="M376 242L375 246L376 246L376 242M157 243L158 244L157 243z"/>
<path style="fill:#91afab; stroke:none;" d="M217 243L218 244L217 243M375 243L376 244L375 243z"/>
<path style="fill:#b1c5c3; stroke:none;" d="M155 244L156 245L155 244M216 244L215 247L216 244z"/>
<path style="fill:#91afab; stroke:none;" d="M339 244L340 245L339 244z"/>
<path style="fill:#5f918b; stroke:none;" d="M374 244L373 250L374 250L374 244M152 245L151 247L153 247L152 245z"/>
<path style="fill:#91afab; stroke:none;" d="M153 245L154 246L153 245z"/>
<path style="fill:#b1c5c3; stroke:none;" d="M154 245L155 246L154 245z"/>
<path style="fill:#5f918b; stroke:none;" d="M338 245L336 254L337 254L338 245z"/>
<path style="fill:#b1c5c3; stroke:none;" d="M339 245L338 249L339 249L339 245M153 246L154 247L153 246z"/>
<path style="fill:#91afab; stroke:none;" d="M216 246L215 248L216 246M151 247L148 251L151 247z"/>
<path style="fill:#b1c5c3; stroke:none;" d="M152 247L153 248L152 247z"/>
<path style="fill:#5f918b; stroke:none;" d="M216 247L217 248L216 247z"/>
<path style="fill:#91afab; stroke:none;" d="M338 247L339 248L338 247M374.333 247.667L374.667 248.333L374.333 247.667z"/>
<path style="fill:#5f918b; stroke:none;" d="M149 248L150 249L149 248z"/>
<path style="fill:#b1c5c3; stroke:none;" d="M151 248L152 249L151 248M214 248L213 251L214 251L214 248z"/>
<path style="fill:#5f918b; stroke:none;" d="M215 248L214 251L215 248z"/>
<path style="fill:#91afab; stroke:none;" d="M214 249L215 250L214 249z"/>
<path style="fill:#b1c5c3; stroke:none;" d="M374 249L373 256L374 256L374 249z"/>
<path style="fill:#5f918b; stroke:none;" d="M147 250L144 255L147 250z"/>
<path style="fill:#b1c5c3; stroke:none;" d="M149 250L150 251L149 250M173 251L173 252L185 252L173 251z"/>
<path style="fill:#91afab; stroke:none;" d="M373 250L374 251L373 250z"/>
<path style="fill:#b1c5c3; stroke:none;" d="M148 251L149 252L148 251z"/>
<path style="fill:#91afab; stroke:none;" d="M175 251L176 252L175 251z"/>
<path style="fill:#5f918b; stroke:none;" d="M176 251L176 252L182 252L176 251z"/>
<path style="fill:#91afab; stroke:none;" d="M182 251L183 252L182 251M213 251L214 252L213 251M337.333 251.667L337.667 252.333L337.333 251.667z"/>
<path style="fill:#b1c5c3; stroke:none;" d="M147 252L148 253L147 252M170 252L171 253L170 252z"/>
<path style="fill:#91afab; stroke:none;" d="M171 252L172 253L171 252z"/>
<path style="fill:#5f918b; stroke:none;" d="M172 252L172 253L175 253L172 252M183 252L183 253L187 254L187 253L183 252z"/>
<path style="fill:#91afab; stroke:none;" d="M185 252L186 253L185 252z"/>
<path style="fill:#b1c5c3; stroke:none;" d="M186 252L187 253L186 252M212 252L210 257L211 257L212 252z"/>
<path style="fill:#5f918b; stroke:none;" d="M213 252L212 255L213 252z"/>
<path style="fill:#b1c5c3; stroke:none;" d="M357 252L356 260L357 260L357 252z"/>
<path style="fill:#5f918b; stroke:none;" d="M372 252L371 259L372 259L372 252z"/>
<path style="fill:#91afab; stroke:none;" d="M146 253L144 256L146 253z"/>
<path style="fill:#b1c5c3; stroke:none;" d="M168 253L169 254L168 253z"/>
<path style="fill:#91afab; stroke:none;" d="M169 253L170 254L169 253z"/>
<path style="fill:#5f918b; stroke:none;" d="M170.667 253.333L171.333 253.667L170.667 253.333z"/>
<path style="fill:#91afab; stroke:none;" d="M187 253L190 256L187 253z"/>
<path style="fill:#b1c5c3; stroke:none;" d="M188 253L189 254L188 253M337 253L336 260L337 260L337 253M395 253L395 256L396 256L395 253z"/>
<path style="fill:#5f918b; stroke:none;" d="M396 253L395 261L396 261L396 253z"/>
<path style="fill:#b1c5c3; stroke:none;" d="M146 254L147 255L146 254M166 254L159 262L166 254z"/>
<path style="fill:#91afab; stroke:none;" d="M167 254L166 256L167 254z"/>
<path style="fill:#5f918b; stroke:none;" d="M168 254L169 255L168 254z"/>
<path style="fill:#b1c5c3; stroke:none;" d="M189 254L190 255L189 254z"/>
<path style="fill:#91afab; stroke:none;" d="M336 254L337 255L336 254z"/>
<path style="fill:#b1c5c3; stroke:none;" d="M145 255L146 256L145 255z"/>
<path style="fill:#5f918b; stroke:none;" d="M167 255L168 256L167 255M188 255L189 256L188 255z"/>
<path style="fill:#91afab; stroke:none;" d="M211 255L212 256L211 255z"/>
<path style="fill:#5f918b; stroke:none;" d="M143 256L141 260L142 260L143 256z"/>
<path style="fill:#b1c5c3; stroke:none;" d="M144 256L145 257L144 256z"/>
<path style="fill:#5f918b; stroke:none;" d="M165 256L166 257L165 256M189.333 256.667L189.667 257.333L189.333 256.667M211 256L209 262L210 262L211 256z"/>
<path style="fill:#91afab; stroke:none;" d="M357.333 256.667L357.667 257.333L357.333 256.667M372 256L373 257L372 256M395.333 256.667L395.667 257.333L395.333 256.667z"/>
<path style="fill:#b1c5c3; stroke:none;" d="M143 257L144 258L143 257z"/>
<path style="fill:#5f918b; stroke:none;" d="M164 257L165 258L164 257z"/>
<path style="fill:#91afab; stroke:none;" d="M190.333 257.667L190.667 258.333L190.333 257.667M210 257L211 258L210 257z"/>
<path style="fill:#5f918b; stroke:none;" d="M335 257L334 263L335 263L335 257z"/>
<path style="fill:#b1c5c3; stroke:none;" d="M372.333 257.667L372.667 258.333L372.333 257.667z"/>
<path style="fill:#5f918b; stroke:none;" d="M163 258L164 259L163 258z"/>
<path style="fill:#b1c5c3; stroke:none;" d="M191 258L190 268L191 268L191 258M209 258L208 261L209 261L209 258z"/>
<path style="fill:#5f918b; stroke:none;" d="M357 258L357 261L358 261L357 258z"/>
<path style="fill:#b1c5c3; stroke:none;" d="M142 259L143 260L142 259z"/>
<path style="fill:#5f918b; stroke:none;" d="M162 259L163 260L162 259M190 259L190 265L191 265L190 259z"/>
<path style="fill:#91afab; stroke:none;" d="M209 259L210 260L209 259M335.333 259.667L335.667 260.333L335.333 259.667M371 259L371 262L372 262L371 259z"/>
<path style="fill:#b1c5c3; stroke:none;" d="M394 259L393 265L394 265L394 259z"/>
<path style="fill:#91afab; stroke:none;" d="M141 260L142 261L141 260z"/>
<path style="fill:#5f918b; stroke:none;" d="M161 260L157 267L158 267L161 260z"/>
<path style="fill:#91afab; stroke:none;" d="M356 260L356 263L357 263L356 260z"/>
<path style="fill:#5f918b; stroke:none;" d="M140 261L138 265L139 265L140 261z"/>
<path style="fill:#b1c5c3; stroke:none;" d="M141 261L142 262L141 261z"/>
<path style="fill:#91afab; stroke:none;" d="M160 261L161 262L160 261M208.333 261.667L208.667 262.333L208.333 261.667z"/>
<path style="fill:#b1c5c3; stroke:none;" d="M335.333 261.667L335.667 262.333L335.333 261.667z"/>
<path style="fill:#91afab; stroke:none;" d="M140 262L141 263L140 262M159 262L160 263L159 262z"/>
<path style="fill:#b1c5c3; stroke:none;" d="M371 262L370 269L371 269L371 262M140 263L141 264L140 263M158 263L159 264L158 263M207 263L208 264L207 263z"/>
<path style="fill:#5f918b; stroke:none;" d="M208 263L207 267L208 267L208 263z"/>
<path style="fill:#91afab; stroke:none;" d="M334 263L334 266L335 266L334 263z"/>
<path style="fill:#5f918b; stroke:none;" d="M356 263L355 270L356 270L356 263M370 263L369 272L370 272L370 263z"/>
<path style="fill:#91afab; stroke:none;" d="M394 263L395 264L394 263M139 264L138 266L139 264M207 264L208 265L207 264z"/>
<path style="fill:#b1c5c3; stroke:none;" d="M355 264L354 271L355 271L355 264z"/>
<path style="fill:#5f918b; stroke:none;" d="M394 264L392 273L393 273L394 264z"/>
<path style="fill:#b1c5c3; stroke:none;" d="M139 265L140 266L139 265M157 265L158 266L157 265z"/>
<path style="fill:#91afab; stroke:none;" d="M190 265L191 266L190 265z"/>
<path style="fill:#b1c5c3; stroke:none;" d="M206 265L206 268L207 268L206 265z"/>
<path style="fill:#91afab; stroke:none;" d="M393.333 265.667L393.667 266.333L393.333 265.667z"/>
<path style="fill:#5f918b; stroke:none;" d="M137 266L136 270L137 270L137 266z"/>
<path style="fill:#b1c5c3; stroke:none;" d="M138 266L139 267L138 266M156 266L157 267L156 266z"/>
<path style="fill:#5f918b; stroke:none;" d="M189 266L188 271L189 271L189 266M333 266L332 279L333 279L333 266z"/>
<path style="fill:#b1c5c3; stroke:none;" d="M334 266L333 276L334 276L334 266z"/>
<path style="fill:#91afab; stroke:none;" d="M355.333 266.667L355.667 267.333L355.333 266.667M370.333 266.667L370.667 267.333L370.333 266.667M156 267L157 268L156 267M137 268L138 269L137 268z"/>
<path style="fill:#b1c5c3; stroke:none;" d="M155 268L154 271L155 271L155 268z"/>
<path style="fill:#5f918b; stroke:none;" d="M156 268L155 271L156 268z"/>
<path style="fill:#91afab; stroke:none;" d="M206 268L207 269L206 268z"/>
<path style="fill:#b1c5c3; stroke:none;" d="M137 269L138 270L137 269z"/>
<path style="fill:#91afab; stroke:none;" d="M155 269L156 270L155 269M189 269L190 270L189 269z"/>
<path style="fill:#b1c5c3; stroke:none;" d="M205 269L206 270L205 269z"/>
<path style="fill:#5f918b; stroke:none;" d="M206 269L205 275L206 275L206 269z"/>
<path style="fill:#b1c5c3; stroke:none;" d="M392 269L391 273L392 273L392 269z"/>
<path style="fill:#91afab; stroke:none;" d="M136 270L137 271L136 270z"/>
<path style="fill:#b1c5c3; stroke:none;" d="M189.333 270.667L189.667 271.333L189.333 270.667z"/>
<path style="fill:#91afab; stroke:none;" d="M205.333 270.667L205.667 271.333L205.333 270.667M392 270L393 271L392 270z"/>
<path style="fill:#5f918b; stroke:none;" d="M135 271L134 275L135 275L135 271z"/>
<path style="fill:#b1c5c3; stroke:none;" d="M136.333 271.667L136.667 272.333L136.333 271.667z"/>
<path style="fill:#91afab; stroke:none;" d="M154 271L155 272L154 271M188.333 271.667L188.667 272.333L188.333 271.667M333.333 271.667L333.667 272.333L333.333 271.667M354.333 271.667L354.667 272.333L354.333 271.667z"/>
<path style="fill:#b1c5c3; stroke:none;" d="M153 272L154 273L153 272z"/>
<path style="fill:#5f918b; stroke:none;" d="M154 272L153 276L154 276L154 272z"/>
<path style="fill:#91afab; stroke:none;" d="M369 272L369 275L370 275L369 272z"/>
<path style="fill:#b1c5c3; stroke:none;" d="M135 273L136 274L135 273z"/>
<path style="fill:#91afab; stroke:none;" d="M153 273L154 274L153 273z"/>
<path style="fill:#b1c5c3; stroke:none;" d="M188 273L189 283L190 283L188 273M204 273L203 278L204 278L204 273M353.333 273.667L353.667 274.333L353.333 273.667z"/>
<path style="fill:#5f918b; stroke:none;" d="M354 273L353 281L354 281L354 273M368 273L368 278L369 278L368 273z"/>
<path style="fill:#91afab; stroke:none;" d="M391.333 273.667L391.667 274.333L391.333 273.667z"/>
<path style="fill:#b1c5c3; stroke:none;" d="M152 274L151 278L152 278L152 274z"/>
<path style="fill:#5f918b; stroke:none;" d="M187 274L187 281L188 281L187 274z"/>
<path style="fill:#b1c5c3; stroke:none;" d="M390.333 274.667L390.667 275.333L390.333 274.667z"/>
<path style="fill:#91afab; stroke:none;" d="M134 275L135 276L134 275M204 275L205 276L204 275M353.333 275.667L353.667 276.333L353.333 275.667z"/>
<path style="fill:#b1c5c3; stroke:none;" d="M369 275L368 285L369 285L369 275z"/>
<path style="fill:#5f918b; stroke:none;" d="M391 275L390 279L391 279L391 275M133 276L131 285L132 285L133 276z"/>
<path style="fill:#b1c5c3; stroke:none;" d="M134 276L133 280L134 280L134 276z"/>
<path style="fill:#91afab; stroke:none;" d="M152 276L153 277L152 276M187 276L188 277L187 276z"/>
<path style="fill:#5f918b; stroke:none;" d="M204 276L199 286C202.353 283.468 205.276 280.389 204 276z"/>
<path style="fill:#91afab; stroke:none;" d="M390 276L391 277L390 276z"/>
<path style="fill:#5f918b; stroke:none;" d="M152 277L150 285L151 285L152 277z"/>
<path style="fill:#b1c5c3; stroke:none;" d="M389 277L388 281L389 281L389 277z"/>
<path style="fill:#91afab; stroke:none;" d="M133 278L134 279L133 278M151 278L152 279L151 278M203 278L204 279L203 278z"/>
<path style="fill:#b1c5c3; stroke:none;" d="M352 278L352 282L353 282L352 278z"/>
<path style="fill:#91afab; stroke:none;" d="M368 278L369 279L368 278M332 279L332 287L333 287L332 279z"/>
<path style="fill:#b1c5c3; stroke:none;" d="M150 280L149 285L150 285L150 280M202 280L203 281L202 280z"/>
<path style="fill:#91afab; stroke:none;" d="M389 280L388 283L389 283L389 280z"/>
<path style="fill:#b1c5c3; stroke:none;" d="M201 281L202 282L201 281z"/>
<path style="fill:#5f918b; stroke:none;" d="M367 281L366 291L367 291L367 281M389 281L390 282L389 281z"/>
<path style="fill:#91afab; stroke:none;" d="M132.333 282.667L132.667 283.333L132.333 282.667M150 282L151 283L150 282M188 282L190 284L188 282M201 282L202 283L201 282M352.333 282.667L352.667 283.333L352.333 282.667z"/>
<path style="fill:#5f918b; stroke:none;" d="M188 283L189 284L188 283z"/>
<path style="fill:#b1c5c3; stroke:none;" d="M200 283L201 284L200 283z"/>
<path style="fill:#5f918b; stroke:none;" d="M331 283L331 289L332 289L331 283z"/>
<path style="fill:#b1c5c3; stroke:none;" d="M351 283L351 286L352 286L351 283z"/>
<path style="fill:#5f918b; stroke:none;" d="M388 283L387 287L388 287L388 283z"/>
<path style="fill:#b1c5c3; stroke:none;" d="M132.333 284.667L132.667 285.333L132.333 284.667z"/>
<path style="fill:#5f918b; stroke:none;" d="M189 284L191 286L189 284z"/>
<path style="fill:#b1c5c3; stroke:none;" d="M190 284L191 285L190 284M199 284L200 285L199 284z"/>
<path style="fill:#5f918b; stroke:none;" d="M213 290L214 290L220 285C216.358 284.507 214.648 286.994 213 290z"/>
<path style="fill:#91afab; stroke:none;" d="M220 284L220 285L224 285L220 284z"/>
<path style="fill:#5f918b; stroke:none;" d="M224 284L224 285L229 297L230 297C228.717 291.614 229.51 286.779 224 284M275 284L275 285L278 285L275 284z"/>
<path style="fill:#91afab; stroke:none;" d="M278 284L278 285L283 285L278 284z"/>
<path style="fill:#5f918b; stroke:none;" d="M283 284L283 285L286 285L283 284M352 284L352 288L353 288L352 284z"/>
<path style="fill:#b1c5c3; stroke:none;" d="M387 284L386 287L387 287L387 284z"/>
<path style="fill:#5f918b; stroke:none;" d="M411 284L411 285L414 285L411 284M441 284L441 285C450.519 288.316 447.065 297.098 447 305L448 305C448.17 296.782 451.954 286.23 441 284z"/>
<path style="fill:#91afab; stroke:none;" d="M131.333 285.667L131.667 286.333L131.333 285.667M149.333 285.667L149.667 286.333L149.333 285.667M191 285L192 286L191 285z"/>
<path style="fill:#b1c5c3; stroke:none;" d="M192 285L192 286L198 286L192 285z"/>
<path style="fill:#91afab; stroke:none;" d="M198 285L199 286L198 285M218 285L219 286L218 285z"/>
<path style="fill:#b1c5c3; stroke:none;" d="M219 285L219 286L225 286L219 285z"/>
<path style="fill:#91afab; stroke:none;" d="M225 285L226 286L225 285z"/>
<path style="fill:#5f918b; stroke:none;" d="M270 286L270 287L274 286L270 286z"/>
<path style="fill:#91afab; stroke:none;" d="M274.667 285.333L275.333 285.667L274.667 285.333z"/>
<path style="fill:#b1c5c3; stroke:none;" d="M276 285L276 286L285 286L276 285z"/>
<path style="fill:#91afab; stroke:none;" d="M285.667 285.333L286.333 285.667L285.667 285.333z"/>
<path style="fill:#5f918b; stroke:none;" d="M287 285L287 286L294 291L287 285z"/>
<path style="fill:#91afab; stroke:none;" d="M367.333 285.667L367.667 286.333L367.333 285.667M387 285L388 286L387 285z"/>
<path style="fill:#5f918b; stroke:none;" d="M408.667 285.333L409.333 285.667L408.667 285.333z"/>
<path style="fill:#91afab; stroke:none;" d="M410.667 285.333L411.333 285.667L410.667 285.333z"/>
<path style="fill:#b1c5c3; stroke:none;" d="M412 285L413 286L412 285z"/>
<path style="fill:#91afab; stroke:none;" d="M413.667 285.333L414.333 285.667L413.667 285.333z"/>
<path style="fill:#5f918b; stroke:none;" d="M415 285L415 286L419 288L415 285M435 291L436 291L440 286L435 291z"/>
<path style="fill:#91afab; stroke:none;" d="M440 285L440 286L444 286L440 285z"/>
<path style="fill:#5f918b; stroke:none;" d="M192 286L192 287L198 287L192 286z"/>
<path style="fill:#91afab; stroke:none;" d="M216 286L215 288L216 286z"/>
<path style="fill:#b1c5c3; stroke:none;" d="M217 286L218 287L217 286M226 286L227 292L228 292L226 286M272 286L273 287L272 286M287 286L290 288L290 287L287 286z"/>
<path style="fill:#91afab; stroke:none;" d="M288 286L289 287L288 286M351 286L351 289L352 289L351 286M408 286L406 289L408 286z"/>
<path style="fill:#b1c5c3; stroke:none;" d="M416 286L417 287L416 286z"/>
<path style="fill:#91afab; stroke:none;" d="M438 286L437 288L438 286M445 286L447 288L445 286z"/>
<path style="fill:#b1c5c3; stroke:none;" d="M131 287L131 292L132 292L131 287M148.333 287.667L148.667 288.333L148.333 287.667z"/>
<path style="fill:#5f918b; stroke:none;" d="M149 287L148 295L149 295L149 287z"/>
<path style="fill:#b1c5c3; stroke:none;" d="M216 287L217 288L216 287z"/>
<path style="fill:#91afab; stroke:none;" d="M227 287L228 288L227 287z"/>
<path style="fill:#5f918b; stroke:none;" d="M268 287L262 294L268 287z"/>
<path style="fill:#91afab; stroke:none;" d="M269 287L270 288L269 287z"/>
<path style="fill:#b1c5c3; stroke:none;" d="M270.667 287.333L271.333 287.667L270.667 287.333M332 287L328 292L328 293C331.192 291.994 332.916 290.438 332 287M367 287L367 291L368 291L367 287z"/>
<path style="fill:#91afab; stroke:none;" d="M386.333 287.667L386.667 288.333L386.333 287.667z"/>
<path style="fill:#5f918b; stroke:none;" d="M406 287L407 288L406 287z"/>
<path style="fill:#b1c5c3; stroke:none;" d="M408 287L409 288L408 287M417 287L418 288L417 287M438 287L439 288L438 287M445 287L446 288L445 287z"/>
<path style="fill:#5f918b; stroke:none;" d="M130 288L130 318L131 318L130 288z"/>
<path style="fill:#b1c5c3; stroke:none;" d="M215 288L216 289L215 288z"/>
<path style="fill:#91afab; stroke:none;" d="M268 288L269 289L268 288z"/>
<path style="fill:#b1c5c3; stroke:none;" d="M290 288L291 289L290 288z"/>
<path style="fill:#91afab; stroke:none;" d="M418 288L419 289L418 288z"/>
<path style="fill:#b1c5c3; stroke:none;" d="M437 288L438 289L437 288z"/>
<path style="fill:#91afab; stroke:none;" d="M148 289L149 290L148 289z"/>
<path style="fill:#b1c5c3; stroke:none;" d="M214 289L215 290L214 289M267 289L268 290L267 289M291 289L292 290L291 289z"/>
<path style="fill:#91afab; stroke:none;" d="M331 289L332 290L331 289z"/>
<path style="fill:#5f918b; stroke:none;" d="M351 289L350 297L351 297L351 289z"/>
<path style="fill:#b1c5c3; stroke:none;" d="M385 289L386 290L385 289z"/>
<path style="fill:#5f918b; stroke:none;" d="M386 289L385 293L386 293L386 289M405 289L406 290L405 289z"/>
<path style="fill:#b1c5c3; stroke:none;" d="M406 289L405 292L406 289M418 289L418 297L419 297L418 289z"/>
<path style="fill:#5f918b; stroke:none;" d="M419 289L420 290L419 289z"/>
<path style="fill:#91afab; stroke:none;" d="M436 289L437 290L436 289M447 289L448 290L447 289z"/>
<path style="fill:#b1c5c3; stroke:none;" d="M147 290L147 316L148 316L147 290z"/>
<path style="fill:#91afab; stroke:none;" d="M213 290L214 291L213 290z"/>
<path style="fill:#b1c5c3; stroke:none;" d="M266 290L267 291L266 290z"/>
<path style="fill:#91afab; stroke:none;" d="M292 290L294 292L292 290z"/>
<path style="fill:#5f918b; stroke:none;" d="M330 290L328 291L328 292L330 290z"/>
<path style="fill:#91afab; stroke:none;" d="M385 290L386 291L385 290M405 290L406 291L405 290M419 290L419 295L420 295L419 290z"/>
<path style="fill:#b1c5c3; stroke:none;" d="M436 290L437 291L436 290M447 290L447 295L448 295L447 290z"/>
<path style="fill:#5f918b; stroke:none;" d="M212.333 291.667L212.667 292.333L212.333 291.667z"/>
<path style="fill:#b1c5c3; stroke:none;" d="M213 291L212 307L213 307L213 291M265 291L266 292L265 291M292 291L293 292L292 291z"/>
<path style="fill:#91afab; stroke:none;" d="M330 291L331 292L330 291z"/>
<path style="fill:#b1c5c3; stroke:none;" d="M350 291L349 298L350 298L350 291z"/>
<path style="fill:#91afab; stroke:none;" d="M366 291L366 294L367 294L366 291z"/>
<path style="fill:#b1c5c3; stroke:none;" d="M384 291L383 295L384 295L384 291z"/>
<path style="fill:#5f918b; stroke:none;" d="M404 291L403 295L404 295L404 291M420 291L420 294L421 294L420 291z"/>
<path style="fill:#b1c5c3; stroke:none;" d="M435 291L434 297L435 297L435 291z"/>
<path style="fill:#91afab; stroke:none;" d="M130 292L130 296L131 296L130 292M227 292L227 295L228 295L227 292z"/>
<path style="fill:#b1c5c3; stroke:none;" d="M264 292L265 293L264 292M293 292L294 293L293 292z"/>
<path style="fill:#5f918b; stroke:none;" d="M294 292L295 297L296 297L294 292M318 293L318 294L322 293L318 293z"/>
<path style="fill:#91afab; stroke:none;" d="M322 292L322 293L328 293L322 292z"/>
<path style="fill:#5f918b; stroke:none;" d="M434 292L433 298L434 298L434 292z"/>
<path style="fill:#91afab; stroke:none;" d="M212 293L212 297L213 297L212 293M263 293L264 294L263 293M320 293L321 294L320 293z"/>
<path style="fill:#b1c5c3; stroke:none;" d="M321 293L322 294L321 293z"/>
<path style="fill:#91afab; stroke:none;" d="M350 293L351 294L350 293M404 293L405 294L404 293z"/>
<path style="fill:#5f918b; stroke:none;" d="M211 294L211 297L212 297L211 294z"/>
<path style="fill:#91afab; stroke:none;" d="M262 294L263 295L262 294M294 294L295 295L294 294z"/>
<path style="fill:#5f918b; stroke:none;" d="M313 297L317 295L313 297z"/>
<path style="fill:#91afab; stroke:none;" d="M317 294L318 295L317 294z"/>
<path style="fill:#b1c5c3; stroke:none;" d="M318.667 294.333L319.333 294.667L318.667 294.333M366 294L365 304L366 304L366 294z"/>
<path style="fill:#5f918b; stroke:none;" d="M384.333 294.667L384.667 295.333L384.333 294.667z"/>
<path style="fill:#b1c5c3; stroke:none;" d="M404 294L405 295L404 294z"/>
<path style="fill:#91afab; stroke:none;" d="M434 294L435 295L434 294z"/>
<path style="fill:#b1c5c3; stroke:none;" d="M227 295L228 296L227 295z"/>
<path style="fill:#5f918b; stroke:none;" d="M261 295L260 297L261 295z"/>
<path style="fill:#b1c5c3; stroke:none;" d="M262 295L263 296L262 295M294.333 295.667L294.667 296.333L294.333 295.667z"/>
<path style="fill:#91afab; stroke:none;" d="M315 295L316 296L315 295z"/>
<path style="fill:#b1c5c3; stroke:none;" d="M316 295L317 296L316 295z"/>
<path style="fill:#5f918b; stroke:none;" d="M365 295L364 306L365 306L365 295z"/>
<path style="fill:#91afab; stroke:none;" d="M383.333 295.667L383.667 296.333L383.333 295.667M403 295L404 296L403 295z"/>
<path style="fill:#5f918b; stroke:none;" d="M419 295L419 298L420 298L419 295z"/>
<path style="fill:#91afab; stroke:none;" d="M447 295L447 298L448 298L447 295z"/>
<path style="fill:#b1c5c3; stroke:none;" d="M130 296L130 309L131 309L130 296M228 296L229 297L228 296M261 296L262 297L261 296M314 296L315 297L314 296M403 296L402 303L403 303L403 296z"/>
<path style="fill:#5f918b; stroke:none;" d="M212 297L211 307L212 307L212 297z"/>
<path style="fill:#b1c5c3; stroke:none;" d="M229 297L230 298L229 297z"/>
<path style="fill:#91afab; stroke:none;" d="M230 297L230 298L237 298L230 297z"/>
<path style="fill:#5f918b; stroke:none;" d="M237 297L237 298L245 306L246 306C244.659 301.225 241.775 298.341 237 297z"/>
<path style="fill:#91afab; stroke:none;" d="M260 297L261 298L260 297z"/>
<path style="fill:#b1c5c3; stroke:none;" d="M277.667 297.333L278.333 297.667L277.667 297.333z"/>
<path style="fill:#91afab; stroke:none;" d="M279 297L280 298L279 297z"/>
<path style="fill:#b1c5c3; stroke:none;" d="M280 297L280 298L283 299L280 297z"/>
<path style="fill:#91afab; stroke:none;" d="M295 297L296 298L295 297z"/>
<path style="fill:#5f918b; stroke:none;" d="M311 297L309 300L311 297z"/>
<path style="fill:#91afab; stroke:none;" d="M312 297L309 301L312 297z"/>
<path style="fill:#b1c5c3; stroke:none;" d="M313 297L314 298L313 297z"/>
<path style="fill:#5f918b; stroke:none;" d="M383.333 297.667L383.667 298.333L383.333 297.667M402 297L401 306L402 306L402 297z"/>
<path style="fill:#91afab; stroke:none;" d="M418.333 297.667L418.667 298.333L418.333 297.667M147 298L147 309L148 309L147 298z"/>
<path style="fill:#b1c5c3; stroke:none;" d="M237 298L237 299L241 300L241 299L237 298z"/>
<path style="fill:#91afab; stroke:none;" d="M239 298L240 299L239 298z"/>
<path style="fill:#5f918b; stroke:none;" d="M259 298L258 302L259 302L259 298z"/>
<path style="fill:#b1c5c3; stroke:none;" d="M260.333 298.667L260.667 299.333L260.333 298.667z"/>
<path style="fill:#91afab; stroke:none;" d="M277 298L278 299L277 298z"/>
<path style="fill:#5f918b; stroke:none;" d="M276 301C280.526 299.74 281.663 301.597 282 306C284.009 301.019 280.379 296.709 276 301z"/>
<path style="fill:#91afab; stroke:none;" d="M281 298L282 299L281 298z"/>
<path style="fill:#b1c5c3; stroke:none;" d="M295 298L295 305L296 305L295 298M312 298L313 299L312 298z"/>
<path style="fill:#91afab; stroke:none;" d="M349 298L349 301L350 301L349 298z"/>
<path style="fill:#b1c5c3; stroke:none;" d="M382 298L381 301L382 301L382 298z"/>
<path style="fill:#91afab; stroke:none;" d="M433 298L433 301L434 301L433 298z"/>
<path style="fill:#b1c5c3; stroke:none;" d="M276 299L277 300L276 299z"/>
<path style="fill:#01655b; stroke:none;" d="M272 314L273 315C287.222 310.111 278.768 291.594 273.599 306.998C272.839 309.264 272.455 311.661 272 314z"/>
<path style="fill:#91afab; stroke:none;" d="M282 299L283 300L282 299z"/>
<path style="fill:#b1c5c3; stroke:none;" d="M311 299L312 300L311 299z"/>
<path style="fill:#91afab; stroke:none;" d="M382 299L383 300L382 299z"/>
<path style="fill:#b1c5c3; stroke:none;" d="M417 299L415 307L416 307L417 299z"/>
<path style="fill:#5f918b; stroke:none;" d="M418 299L417 304L418 304L418 299z"/>
<path style="fill:#b1c5c3; stroke:none;" d="M241 300L242 301L241 300M259 300L260 301L259 300M275 300L274 302L275 300M283 300L284 301L283 300M310 300L311 301L310 300z"/>
<path style="fill:#91afab; stroke:none;" d="M365 300L366 301L365 300z"/>
<path style="fill:#5f918b; stroke:none;" d="M382 300L383 301L382 300z"/>
<path style="fill:#91afab; stroke:none;" d="M402 300L403 301L402 300z"/>
<path style="fill:#5f918b; stroke:none;" d="M432 300L432 303L433 303L432 300z"/>
<path style="fill:#b1c5c3; stroke:none;" d="M242 301L243 302L242 301z"/>
<path style="fill:#91afab; stroke:none;" d="M275 301L274 303L275 301M283 301L283 304L284 304L283 301z"/>
<path style="fill:#5f918b; stroke:none;" d="M306 304L309 301L306 304z"/>
<path style="fill:#b1c5c3; stroke:none;" d="M309 301L310 302L309 301M348.333 301.667L348.667 302.333L348.333 301.667z"/>
<path style="fill:#5f918b; stroke:none;" d="M349 301L348 308L349 308L349 301z"/>
<path style="fill:#91afab; stroke:none;" d="M381.333 301.667L381.667 302.333L381.333 301.667M417 301L418 302L417 301z"/>
<path style="fill:#b1c5c3; stroke:none;" d="M433 301L432 307L433 307L433 301M243 302L245 305L243 302z"/>
<path style="fill:#91afab; stroke:none;" d="M258.333 302.667L258.667 303.333L258.333 302.667z"/>
<path style="fill:#5f918b; stroke:none;" d="M275 302L276 303L275 302z"/>
<path style="fill:#b1c5c3; stroke:none;" d="M308 302L309 303L308 302z"/>
<path style="fill:#91afab; stroke:none;" d="M244 303L245 304L244 303z"/>
<path style="fill:#5f918b; stroke:none;" d="M257.333 303.667L257.667 304.333L257.333 303.667z"/>
<path style="fill:#b1c5c3; stroke:none;" d="M273 303L272 306L273 303z"/>
<path style="fill:#5f918b; stroke:none;" d="M274.333 303.667L274.667 304.333L274.333 303.667z"/>
<path style="fill:#91afab; stroke:none;" d="M307 303L306 305L307 303z"/>
<path style="fill:#b1c5c3; stroke:none;" d="M326 303L326 304L330 304L326 303z"/>
<path style="fill:#91afab; stroke:none;" d="M348.333 303.667L348.667 304.333L348.333 303.667z"/>
<path style="fill:#b1c5c3; stroke:none;" d="M380 303L381 304L380 303z"/>
<path style="fill:#5f918b; stroke:none;" d="M381 303L380 307L381 307L381 303z"/>
<path style="fill:#91afab; stroke:none;" d="M432.333 303.667L432.667 304.333L432.333 303.667z"/>
<path style="fill:#b1c5c3; stroke:none;" d="M446 303L445 311L446 311L446 303M258 304L257 310L258 310L258 304M283.333 304.667L283.667 305.333L283.333 304.667M307 304L308 305L307 304z"/>
<path style="fill:#91afab; stroke:none;" d="M322 306L325 305L322 306z"/>
<path style="fill:#5f918b; stroke:none;" d="M325 304L325 305L331 309C331.844 304.986 328.402 304.259 325 304z"/>
<path style="fill:#91afab; stroke:none;" d="M330 304L332 306L330 304z"/>
<path style="fill:#b1c5c3; stroke:none;" d="M331 304L332 305L331 304z"/>
<path style="fill:#91afab; stroke:none;" d="M380 304L381 305L380 304M212 305L213 306L212 305M257 305L258 306L257 305z"/>
<path style="fill:#5f918b; stroke:none;" d="M273.333 305.667L273.667 306.333L273.333 305.667z"/>
<path style="fill:#91afab; stroke:none;" d="M295.333 305.667L295.667 306.333L295.333 305.667z"/>
<path style="fill:#5f918b; stroke:none;" d="M305 305L304 308L305 308L305 305z"/>
<path style="fill:#b1c5c3; stroke:none;" d="M306 305L307 306L306 305M321 305L319 308L321 305z"/>
<path style="fill:#5f918b; stroke:none;" d="M323 305L321 308L323 305z"/>
<path style="fill:#01655b; stroke:none;" d="M324.039 305.943C316.229 309.358 314.665 319.545 315.04 327C315.275 331.664 317.75 337.768 323.572 335.137C332.074 331.296 331.016 321.648 331 314C330.99 309.37 330.483 303.126 324.039 305.943z"/>
<path style="fill:#b1c5c3; stroke:none;" d="M332 305L331 329L332 329L332 305M347 305L346 313L347 313L347 305M379 305L378 310L379 310L379 305z"/>
<path style="fill:#91afab; stroke:none;" d="M416 305L417 306L416 305z"/>
<path style="fill:#5f918b; stroke:none;" d="M431 305L430 312L431 312L431 305z"/>
<path style="fill:#91afab; stroke:none;" d="M446 305L446 308L447 308L446 305M245 306L245 312L246 312L245 306M272.333 306.667L272.667 307.333L272.333 306.667M282 306L283 307L282 306z"/>
<path style="fill:#b1c5c3; stroke:none;" d="M294.333 306.667L294.667 307.333L294.333 306.667z"/>
<path style="fill:#91afab; stroke:none;" d="M305 306L306 307L305 306M364 306L364 310L365 310L364 306M401 306L401 309L402 309L401 306z"/>
<path style="fill:#5f918b; stroke:none;" d="M416 306C415.31 311.464 413.951 338.21 425 325C411.564 331.961 418.221 312.194 416 306z"/>
<path style="fill:#91afab; stroke:none;" d="M211 307L212 308L211 307z"/>
<path style="fill:#5f918b; stroke:none;" d="M256 307L255 313L256 313L256 307M281 307L280 310L281 307z"/>
<path style="fill:#b1c5c3; stroke:none;" d="M282.333 307.667L282.667 308.333L282.333 307.667z"/>
<path style="fill:#5f918b; stroke:none;" d="M295 307L293 314L294 314L295 307z"/>
<path style="fill:#b1c5c3; stroke:none;" d="M305 307L306 308L305 307z"/>
<path style="fill:#91afab; stroke:none;" d="M320 307L321 308L320 307z"/>
<path style="fill:#5f918b; stroke:none;" d="M400 307L400 313L401 313L400 307z"/>
<path style="fill:#91afab; stroke:none;" d="M415 307L415 310L416 310L415 307z"/>
<path style="fill:#5f918b; stroke:none;" d="M210 308L208 312L209 312L210 308z"/>
<path style="fill:#b1c5c3; stroke:none;" d="M211 308L212 309L211 308z"/>
<path style="fill:#5f918b; stroke:none;" d="M246.333 308.667L246.667 309.333L246.333 308.667M272 308L272 312L273 312L272 308z"/>
<path style="fill:#91afab; stroke:none;" d="M294.333 308.667L294.667 309.333L294.333 308.667M304 308L305 309L304 308z"/>
<path style="fill:#5f918b; stroke:none;" d="M319 308L316 315L317 315L319 308z"/>
<path style="fill:#91afab; stroke:none;" d="M379 308L380 309L379 308z"/>
<path style="fill:#5f918b; stroke:none;" d="M446 308L446 312L447 312L446 308z"/>
<path style="fill:#91afab; stroke:none;" d="M130 309L130 313L131 313L130 309z"/>
<path style="fill:#b1c5c3; stroke:none;" d="M210.333 309.667L210.667 310.333L210.333 309.667M271 309L271 316L272 316L271 309M281 309L282 310L281 309z"/>
<path style="fill:#5f918b; stroke:none;" d="M303 309L302 313L303 313L303 309z"/>
<path style="fill:#b1c5c3; stroke:none;" d="M304.333 309.667L304.667 310.333L304.333 309.667M317.333 309.667L317.667 310.333L317.333 309.667z"/>
<path style="fill:#91afab; stroke:none;" d="M318 309L319 310L318 309M331 309L331 314L332 314L331 309z"/>
<path style="fill:#5f918b; stroke:none;" d="M363.333 309.667L363.667 310.333L363.333 309.667M379 309L379 312L380 312L379 309z"/>
<path style="fill:#b1c5c3; stroke:none;" d="M401 309L400 317L401 317L401 309z"/>
<path style="fill:#91afab; stroke:none;" d="M431.333 309.667L431.667 310.333L431.333 309.667z"/>
<path style="fill:#b1c5c3; stroke:none;" d="M222 313L226 311L222 313z"/>
<path style="fill:#91afab; stroke:none;" d="M226 310L227 311L226 310z"/>
<path style="fill:#b1c5c3; stroke:none;" d="M227 310L228 311L227 310z"/>
<path style="fill:#91afab; stroke:none;" d="M256 310L257 311L256 310M280 310L281 311L280 310M347 310L348 311L347 310z"/>
<path style="fill:#b1c5c3; stroke:none;" d="M364 310L363 314L364 314L364 310z"/>
<path style="fill:#91afab; stroke:none;" d="M378 310L378 313L379 313L378 310z"/>
<path style="fill:#b1c5c3; stroke:none;" d="M209 311L210 312L209 311z"/>
<path style="fill:#5f918b; stroke:none;" d="M224 311L222 315L226 311L224 311M227 311L228 319L229 319L227 311z"/>
<path style="fill:#91afab; stroke:none;" d="M228 311L229 312L228 311z"/>
<path style="fill:#b1c5c3; stroke:none;" d="M256.333 311.667L256.667 312.333L256.333 311.667z"/>
<path style="fill:#91afab; stroke:none;" d="M271.333 311.667L271.667 312.333L271.333 311.667z"/>
<path style="fill:#5f918b; stroke:none;" d="M279 311L277 314L279 311z"/>
<path style="fill:#b1c5c3; stroke:none;" d="M280 311L281 312L280 311M293 311L292 314L293 314L293 311z"/>
<path style="fill:#91afab; stroke:none;" d="M303 311L304 312L303 311z"/>
<path style="fill:#b1c5c3; stroke:none;" d="M316 311L317 312L316 311z"/>
<path style="fill:#5f918b; stroke:none;" d="M347 311L347 315L348 315L347 311z"/>
<path style="fill:#91afab; stroke:none;" d="M363 311L364 312L363 311z"/>
<path style="fill:#b1c5c3; stroke:none;" d="M431.333 311.667L431.667 312.333L431.333 311.667z"/>
<path style="fill:#91afab; stroke:none;" d="M445 311L445 315L446 315L445 311z"/>
<path style="fill:#5f918b; stroke:none;" d="M148 312L149 319L150 319L148 312z"/>
<path style="fill:#91afab; stroke:none;" d="M208 312L209 313L208 312M223 312L224 313L223 312z"/>
<path style="fill:#b1c5c3; stroke:none;" d="M229 312L230 313L229 312M244 312L245 313L244 312z"/>
<path style="fill:#5f918b; stroke:none;" d="M245 312L244 316L245 316L245 312z"/>
<path style="fill:#b1c5c3; stroke:none;" d="M279 312L280 313L279 312z"/>
<path style="fill:#91afab; stroke:none;" d="M293 312L294 313L293 312z"/>
<path style="fill:#b1c5c3; stroke:none;" d="M303 312L304 313L303 312z"/>
<path style="fill:#91afab; stroke:none;" d="M316 312L317 313L316 312z"/>
<path style="fill:#5f918b; stroke:none;" d="M362 312L361 317L362 317L362 312z"/>
<path style="fill:#91afab; stroke:none;" d="M430.333 312.667L430.667 313.333L430.333 312.667z"/>
<path style="fill:#b1c5c3; stroke:none;" d="M131 313L131 319L132 319L131 313z"/>
<path style="fill:#5f918b; stroke:none;" d="M207 313L205 316L207 313z"/>
<path style="fill:#b1c5c3; stroke:none;" d="M208 313L209 314L208 313z"/>
<path style="fill:#91afab; stroke:none;" d="M222 313L223 314L222 313z"/>
<path style="fill:#b1c5c3; stroke:none;" d="M230 313L230 317L231 317L230 313z"/>
<path style="fill:#91afab; stroke:none;" d="M244 313L245 314L244 313M255.333 313.667L255.667 314.333L255.333 313.667z"/>
<path style="fill:#5f918b; stroke:none;" d="M271 313L276 315L276 314L271 313z"/>
<path style="fill:#b1c5c3; stroke:none;" d="M278 313L279 314L278 313z"/>
<path style="fill:#91afab; stroke:none;" d="M302.333 313.667L302.667 314.333L302.333 313.667z"/>
<path style="fill:#b1c5c3; stroke:none;" d="M315 313L314 317L315 317L315 313z"/>
<path style="fill:#91afab; stroke:none;" d="M346 313L346 316L347 316L346 313z"/>
<path style="fill:#5f918b; stroke:none;" d="M378 313L379 330L380 330L378 313z"/>
<path style="fill:#91afab; stroke:none;" d="M400 313L401 314L400 313z"/>
<path style="fill:#b1c5c3; stroke:none;" d="M207 314L208 315L207 314M221 314L220 317L221 314M243 314L243 317L244 317L243 314z"/>
<path style="fill:#91afab; stroke:none;" d="M271 314L272 315L271 314M276 314L277 315L276 314z"/>
<path style="fill:#b1c5c3; stroke:none;" d="M277 314L278 315L277 314z"/>
<path style="fill:#91afab; stroke:none;" d="M292 314L293 315L292 314z"/>
<path style="fill:#5f918b; stroke:none;" d="M301 314L299 321L300 321L301 314M399 314L398 320L399 320L399 314z"/>
<path style="fill:#b1c5c3; stroke:none;" d="M414 314L414 324L415 324L414 314M430 314L429 319L430 319L430 314z"/>
<path style="fill:#91afab; stroke:none;" d="M206 315L205 317L206 315z"/>
<path style="fill:#5f918b; stroke:none;" d="M254 315L250 325L251 325L254 315z"/>
<path style="fill:#b1c5c3; stroke:none;" d="M255 315L254 319L255 319L255 315z"/>
<path style="fill:#91afab; stroke:none;" d="M272 315L273 316L272 315M275 315L276 316L275 315z"/>
<path style="fill:#b1c5c3; stroke:none;" d="M291 315L289 318L291 315z"/>
<path style="fill:#5f918b; stroke:none;" d="M292 315L293 316L292 315z"/>
<path style="fill:#b1c5c3; stroke:none;" d="M302 315L301 318L302 315z"/>
<path style="fill:#91afab; stroke:none;" d="M315 315L316 316L315 315M362 315L363 316L362 315z"/>
<path style="fill:#5f918b; stroke:none;" d="M429 315L428 319L429 319L429 315M445 315L444 327L445 327L445 315z"/>
<path style="fill:#91afab; stroke:none;" d="M148 316L149 317L148 316z"/>
<path style="fill:#b1c5c3; stroke:none;" d="M206 316L207 317L206 316z"/>
<path style="fill:#5f918b; stroke:none;" d="M221 316L217 325L218 325L221 316M291 316L286 323L291 316z"/>
<path style="fill:#91afab; stroke:none;" d="M301 316L302 317L301 316z"/>
<path style="fill:#5f918b; stroke:none;" d="M315.333 316.667L315.667 317.333L315.333 316.667M346 316C345.862 322.669 342.595 332.456 351 335L351 334C343.451 329.878 348.634 322.336 346 316z"/>
<path style="fill:#b1c5c3; stroke:none;" d="M362 316L363 317L362 316z"/>
<path style="fill:#91afab; stroke:none;" d="M414 316L414 322L415 322L414 316z"/>
<path style="fill:#b1c5c3; stroke:none;" d="M148.333 317.667L148.667 318.333L148.333 317.667z"/>
<path style="fill:#5f918b; stroke:none;" d="M204 317L194 329L204 317z"/>
<path style="fill:#b1c5c3; stroke:none;" d="M205 317L206 318L205 317z"/>
<path style="fill:#91afab; stroke:none;" d="M220 317L221 318L220 317M229 317L230 318L229 317M243.333 317.667L243.667 318.333L243.333 317.667M254 317L255 318L254 317M290 317L291 318L290 317M314.333 317.667L314.667 318.333L314.333 317.667M361 317L362 318L361 317z"/>
<path style="fill:#b1c5c3; stroke:none;" d="M444 317L443 330L444 330L444 317z"/>
<path style="fill:#91afab; stroke:none;" d="M204 318L205 319L204 318z"/>
<path style="fill:#b1c5c3; stroke:none;" d="M229 318L230 319L229 318M242.333 318.667L242.667 319.333L242.333 318.667z"/>
<path style="fill:#91afab; stroke:none;" d="M289 318L290 319L289 318M331 318L331 324L332 324L331 318z"/>
<path style="fill:#5f918b; stroke:none;" d="M360 318L359 321L360 321L360 318z"/>
<path style="fill:#b1c5c3; stroke:none;" d="M361 318L360 321L361 318z"/>
<path style="fill:#91afab; stroke:none;" d="M399 318L400 319L399 318M131.333 319.667L131.667 320.333L131.333 319.667M149 319L150 320L149 319M203 319L204 320L203 319z"/>
<path style="fill:#b1c5c3; stroke:none;" d="M219 319L220 320L219 319z"/>
<path style="fill:#91afab; stroke:none;" d="M228.333 319.667L228.667 320.333L228.333 319.667z"/>
<path style="fill:#5f918b; stroke:none;" d="M243 319L242 326L243 326L243 319z"/>
<path style="fill:#b1c5c3; stroke:none;" d="M288 319L289 320L288 319z"/>
<path style="fill:#91afab; stroke:none;" d="M300 319L301 320L300 319z"/>
<path style="fill:#5f918b; stroke:none;" d="M314 319L315 333L316 333L314 319z"/>
<path style="fill:#b1c5c3; stroke:none;" d="M345 319L346 320L345 319z"/>
<path style="fill:#91afab; stroke:none;" d="M360 319L361 320L360 319z"/>
<path style="fill:#b1c5c3; stroke:none;" d="M399 319L400 320L399 319z"/>
<path style="fill:#91afab; stroke:none;" d="M428 319L429 320L428 319z"/>
<path style="fill:#b1c5c3; stroke:none;" d="M132.333 320.667L132.667 321.333L132.333 320.667M149 320L150 324L151 324L149 320M203 320L204 321L203 320M218 320L219 321L218 320z"/>
<path style="fill:#91afab; stroke:none;" d="M242 320L243 321L242 320M253 320L254 321L253 320z"/>
<path style="fill:#b1c5c3; stroke:none;" d="M287 320L288 321L287 320M300 320L301 321L300 320z"/>
<path style="fill:#91afab; stroke:none;" d="M345 320L345 323L346 323L345 320M398 320L399 321L398 320z"/>
<path style="fill:#5f918b; stroke:none;" d="M427 320L428 321L427 320z"/>
<path style="fill:#b1c5c3; stroke:none;" d="M428 320L427 323L428 320z"/>
<path style="fill:#91afab; stroke:none;" d="M444.333 320.667L444.667 321.333L444.333 320.667z"/>
<path style="fill:#5f918b; stroke:none;" d="M131 321L133 329L134 329L131 321M150 321L151 324L152 324L150 321z"/>
<path style="fill:#91afab; stroke:none;" d="M218 321L219 322L218 321z"/>
<path style="fill:#5f918b; stroke:none;" d="M227.333 321.667L227.667 322.333L227.333 321.667z"/>
<path style="fill:#b1c5c3; stroke:none;" d="M228 321L227 325L228 325L228 321M253 321L254 322L253 321M285 321L282 323L282 324L286 322L285 321z"/>
<path style="fill:#91afab; stroke:none;" d="M286 321L287 322L286 321M299 321L300 322L299 321z"/>
<path style="fill:#b1c5c3; stroke:none;" d="M313 321L313 329L314 329L313 321z"/>
<path style="fill:#91afab; stroke:none;" d="M359 321L360 322L359 321z"/>
<path style="fill:#5f918b; stroke:none;" d="M397 321L396 324L397 324L397 321z"/>
<path style="fill:#b1c5c3; stroke:none;" d="M398 321L397 324L398 321z"/>
<path style="fill:#91afab; stroke:none;" d="M427 321L428 322L427 321M132.333 322.667L132.667 323.333L132.333 322.667M150 322L151 323L150 322z"/>
<path style="fill:#b1c5c3; stroke:none;" d="M201 322L202 323L201 322M217 322L215 326L216 326L217 322z"/>
<path style="fill:#91afab; stroke:none;" d="M252 322L253 323L252 322M285 322L286 323L285 322z"/>
<path style="fill:#5f918b; stroke:none;" d="M298 322L296 326L297 326L298 322z"/>
<path style="fill:#b1c5c3; stroke:none;" d="M299 322L298 325L299 322M344 322L345 332L346 332L344 322z"/>
<path style="fill:#5f918b; stroke:none;" d="M358 322L359 323L358 322z"/>
<path style="fill:#b1c5c3; stroke:none;" d="M359 322L358 325L359 322z"/>
<path style="fill:#91afab; stroke:none;" d="M397 322L398 323L397 322z"/>
<path style="fill:#5f918b; stroke:none;" d="M426 322L425 324L426 322z"/>
<path style="fill:#b1c5c3; stroke:none;" d="M200 323L201 324L200 323z"/>
<path style="fill:#91afab; stroke:none;" d="M217 323L218 324L217 323M227 323L228 324L227 323z"/>
<path style="fill:#b1c5c3; stroke:none;" d="M241 323L241 328L242 328L241 323M252 323L253 324L252 323z"/>
<path style="fill:#91afab; stroke:none;" d="M283 323L284 324L283 323z"/>
<path style="fill:#5f918b; stroke:none;" d="M284 323L285 324L284 323z"/>
<path style="fill:#91afab; stroke:none;" d="M298 323L299 324L298 323M358 323L359 324L358 323M426 323L425 325L426 323M151 324L152 325L151 324z"/>
<path style="fill:#b1c5c3; stroke:none;" d="M199 324L200 325L199 324z"/>
<path style="fill:#5f918b; stroke:none;" d="M226 324L225 332L226 332L226 324z"/>
<path style="fill:#91afab; stroke:none;" d="M251 324L250 326L251 324z"/>
<path style="fill:#b1c5c3; stroke:none;" d="M277 325L277 326L281 325L277 325z"/>
<path style="fill:#91afab; stroke:none;" d="M281 324L282 325L281 324z"/>
<path style="fill:#5f918b; stroke:none;" d="M282.667 324.333L283.333 324.667L282.667 324.333M331.333 324.667L331.667 325.333L331.333 324.667M357 324L356 327L357 324z"/>
<path style="fill:#91afab; stroke:none;" d="M396 324L397 325L396 324z"/>
<path style="fill:#b1c5c3; stroke:none;" d="M426 324L427 325L426 324M151 325L152 326L151 325z"/>
<path style="fill:#5f918b; stroke:none;" d="M152 325L153 326L152 325z"/>
<path style="fill:#b1c5c3; stroke:none;" d="M198 325L199 326L198 325z"/>
<path style="fill:#91afab; stroke:none;" d="M216 325L215 327L216 325z"/>
<path style="fill:#b1c5c3; stroke:none;" d="M251 325L252 326L251 325z"/>
<path style="fill:#91afab; stroke:none;" d="M278 325L279 326L278 325z"/>
<path style="fill:#5f918b; stroke:none;" d="M279.667 325.333L280.333 325.667L279.667 325.333z"/>
<path style="fill:#b1c5c3; stroke:none;" d="M297 325L296 328L297 325z"/>
<path style="fill:#5f918b; stroke:none;" d="M395 325L393 328L395 325z"/>
<path style="fill:#b1c5c3; stroke:none;" d="M396 325L397 326L396 325M425 325L426 326L425 325M133 326L134 330L135 330L133 326z"/>
<path style="fill:#91afab; stroke:none;" d="M152 326L153 327L152 326z"/>
<path style="fill:#b1c5c3; stroke:none;" d="M197 326L198 327L197 326z"/>
<path style="fill:#5f918b; stroke:none;" d="M216 326L217 327L216 326M249 326L247 329L249 326z"/>
<path style="fill:#b1c5c3; stroke:none;" d="M250 326L251 327L250 326M272 326L273 327L272 326z"/>
<path style="fill:#91afab; stroke:none;" d="M273 326L274 327L273 326z"/>
<path style="fill:#5f918b; stroke:none;" d="M274 326L274 327L278 327L274 326z"/>
<path style="fill:#91afab; stroke:none;" d="M296 326L297 327L296 326M331 326L332 327L331 326z"/>
<path style="fill:#b1c5c3; stroke:none;" d="M357 326L358 327L357 326M395 326L396 327L395 326z"/>
<path style="fill:#91afab; stroke:none;" d="M415 326L417 328L415 326z"/>
<path style="fill:#b1c5c3; stroke:none;" d="M424 326L425 327L424 326z"/>
<path style="fill:#91afab; stroke:none;" d="M133 327L134 328L133 327z"/>
<path style="fill:#b1c5c3; stroke:none;" d="M152 327L154 329L152 327z"/>
<path style="fill:#5f918b; stroke:none;" d="M153 327L154 328L153 327z"/>
<path style="fill:#b1c5c3; stroke:none;" d="M196 327L197 328L196 327M214 327L213 329L214 327z"/>
<path style="fill:#5f918b; stroke:none;" d="M215 327L216 328L215 327z"/>
<path style="fill:#91afab; stroke:none;" d="M226.333 327.667L226.667 328.333L226.333 327.667z"/>
<path style="fill:#5f918b; stroke:none;" d="M242.333 327.667L242.667 328.333L242.333 327.667z"/>
<path style="fill:#b1c5c3; stroke:none;" d="M249 327L250 328L249 327M270 327L271 334L272 334L270 327z"/>
<path style="fill:#91afab; stroke:none;" d="M271 327L272 328L271 327z"/>
<path style="fill:#5f918b; stroke:none;" d="M272.667 327.333L273.333 327.667L272.667 327.333M295 327L292 331L295 327z"/>
<path style="fill:#91afab; stroke:none;" d="M356 327L357 328L356 327M378.333 327.667L378.667 328.333L378.333 327.667M394 327L393 329L394 327z"/>
<path style="fill:#b1c5c3; stroke:none;" d="M415 327L416 328L415 327z"/>
<path style="fill:#91afab; stroke:none;" d="M423 327L424 328L423 327z"/>
<path style="fill:#5f918b; stroke:none;" d="M154 328L159 333L154 328z"/>
<path style="fill:#b1c5c3; stroke:none;" d="M195 328L196 329L195 328z"/>
<path style="fill:#5f918b; stroke:none;" d="M214 328L215 329L214 328z"/>
<path style="fill:#b1c5c3; stroke:none;" d="M248 328L249 329L248 328z"/>
<path style="fill:#5f918b; stroke:none;" d="M271 328C271.449 332.947 273.019 335.994 277 339L271 328z"/>
<path style="fill:#91afab; stroke:none;" d="M295 328L294 330L295 328z"/>
<path style="fill:#5f918b; stroke:none;" d="M330 328L324 336L330 328M355 328L352 334L353 334L355 328z"/>
<path style="fill:#b1c5c3; stroke:none;" d="M356.333 328.667L356.667 329.333L356.333 328.667M394 328L395 329L394 328z"/>
<path style="fill:#91afab; stroke:none;" d="M417 328L418 329L417 328z"/>
<path style="fill:#b1c5c3; stroke:none;" d="M422 328L423 329L422 328z"/>
<path style="fill:#91afab; stroke:none;" d="M154 329L156 331L154 329z"/>
<path style="fill:#5f918b; stroke:none;" d="M192 329L191 331L192 329z"/>
<path style="fill:#91afab; stroke:none;" d="M193 329L192 331L193 329z"/>
<path style="fill:#b1c5c3; stroke:none;" d="M194 329L195 330L194 329z"/>
<path style="fill:#91afab; stroke:none;" d="M213 329L214 330L213 329z"/>
<path style="fill:#b1c5c3; stroke:none;" d="M226 329L226 339L227 339L226 329M242 329L243 330L242 329z"/>
<path style="fill:#91afab; stroke:none;" d="M243 329L244 330L243 329z"/>
<path style="fill:#5f918b; stroke:none;" d="M244 329L245 330L244 329z"/>
<path style="fill:#91afab; stroke:none;" d="M245.667 329.333L246.333 329.667L245.667 329.333z"/>
<path style="fill:#b1c5c3; stroke:none;" d="M247 329L248 330L247 329M295 329L296 330L295 329z"/>
<path style="fill:#91afab; stroke:none;" d="M330 329L331 330L330 329M345 329L346 330L345 329M355 329L356 330L355 329z"/>
<path style="fill:#b1c5c3; stroke:none;" d="M378 329L382 336L378 329z"/>
<path style="fill:#5f918b; stroke:none;" d="M392 329L388 334L392 329z"/>
<path style="fill:#b1c5c3; stroke:none;" d="M393 329L394 330L393 329M417 329L417 330L422 330L417 329z"/>
<path style="fill:#91afab; stroke:none;" d="M134 330L135 331L134 330z"/>
<path style="fill:#b1c5c3; stroke:none;" d="M154 330L155 331L154 330M193 330L194 331L193 330M212 330L208 335L212 330z"/>
<path style="fill:#5f918b; stroke:none;" d="M213 330L214 331L213 330z"/>
<path style="fill:#b1c5c3; stroke:none;" d="M244.667 330.333L245.333 330.667L244.667 330.333M294 330L295 331L294 330M330 330L331 331L330 330z"/>
<path style="fill:#91afab; stroke:none;" d="M379 330L380 331L379 330z"/>
<path style="fill:#b1c5c3; stroke:none;" d="M392 330L393 331L392 330z"/>
<path style="fill:#91afab; stroke:none;" d="M443.333 330.667L443.667 331.333L443.333 330.667z"/>
<path style="fill:#5f918b; stroke:none;" d="M134 331L136 334L134 331z"/>
<path style="fill:#b1c5c3; stroke:none;" d="M135 331L136 332L135 331z"/>
<path style="fill:#91afab; stroke:none;" d="M156 331L158 333L156 331z"/>
<path style="fill:#5f918b; stroke:none;" d="M189 331L186 333L186 334L190 332L189 331z"/>
<path style="fill:#91afab; stroke:none;" d="M190 331L189 333L190 331z"/>
<path style="fill:#b1c5c3; stroke:none;" d="M191 331L192 332L191 331z"/>
<path style="fill:#5f918b; stroke:none;" d="M212 331L213 332L212 331z"/>
<path style="fill:#91afab; stroke:none;" d="M292 331L293 332L292 331z"/>
<path style="fill:#b1c5c3; stroke:none;" d="M293 331L294 332L293 331z"/>
<path style="fill:#91afab; stroke:none;" d="M314 331L315 332L314 331M329 331L328 333L329 331M354 331L353 333L354 331z"/>
<path style="fill:#b1c5c3; stroke:none;" d="M391 331L390 333L392 333L391 331M442 331L442 335L443 335L442 331z"/>
<path style="fill:#5f918b; stroke:none;" d="M455 337L456 337L462 332C458.336 331.508 456.53 333.896 455 337z"/>
<path style="fill:#91afab; stroke:none;" d="M135 332L136 333L135 332z"/>
<path style="fill:#b1c5c3; stroke:none;" d="M156 332L157 333L156 332M190 332L191 333L190 332z"/>
<path style="fill:#5f918b; stroke:none;" d="M211 332L212 333L211 332z"/>
<path style="fill:#91afab; stroke:none;" d="M225 332L225 337L226 337L225 332M271 332L272 333L271 332z"/>
<path style="fill:#5f918b; stroke:none;" d="M291 332L288 336L291 332z"/>
<path style="fill:#b1c5c3; stroke:none;" d="M292 332L293 333L292 332M314 332L316 335L314 332M329 332L330 333L329 332M354 332L355 333L354 332z"/>
<path style="fill:#5f918b; stroke:none;" d="M380 332L387 335L387 334L380 332M443 332L442 345L443 345L443 332z"/>
<path style="fill:#91afab; stroke:none;" d="M460 332L460 333L463 333L460 332z"/>
<path style="fill:#5f918b; stroke:none;" d="M463 332L463 333L465 335L466 335L463 332z"/>
<path style="fill:#b1c5c3; stroke:none;" d="M136 333L137 334L136 333M158 333L158 334L162 336L162 335L158 333z"/>
<path style="fill:#91afab; stroke:none;" d="M159 333L160 334L159 333M187 333L188 334L187 333z"/>
<path style="fill:#b1c5c3; stroke:none;" d="M188 333L189 334L188 333z"/>
<path style="fill:#5f918b; stroke:none;" d="M210 333L205 340L210 333z"/>
<path style="fill:#b1c5c3; stroke:none;" d="M291 333L292 334L291 333z"/>
<path style="fill:#91afab; stroke:none;" d="M315 333L316 334L315 333M327 333L326 335L327 333z"/>
<path style="fill:#b1c5c3; stroke:none;" d="M346 333L347 334L346 333M389 333L390 334L389 333M458 333L459 334L458 333M463 333L465 335L463 333z"/>
<path style="fill:#91afab; stroke:none;" d="M464 333L465 334L464 333M136 334L137 335L136 334z"/>
<path style="fill:#5f918b; stroke:none;" d="M161 334L161 335L165 336L165 335L161 334M181 335L181 336L185 335L181 335z"/>
<path style="fill:#91afab; stroke:none;" d="M185 334L186 335L185 334z"/>
<path style="fill:#b1c5c3; stroke:none;" d="M186.667 334.333L187.333 334.667L186.667 334.333z"/>
<path style="fill:#91afab; stroke:none;" d="M209 334L210 335L209 334z"/>
<path style="fill:#b1c5c3; stroke:none;" d="M290 334L291 335L290 334z"/>
<path style="fill:#5f918b; stroke:none;" d="M316 334L322 337L322 336L316 334z"/>
<path style="fill:#b1c5c3; stroke:none;" d="M327 334L328 335L327 334M347 334L348 335L347 334z"/>
<path style="fill:#91afab; stroke:none;" d="M351 334L352 335L351 334z"/>
<path style="fill:#b1c5c3; stroke:none;" d="M352 334L353 335L352 334z"/>
<path style="fill:#91afab; stroke:none;" d="M381 334L382 335L381 334M387 334L388 335L387 334z"/>
<path style="fill:#b1c5c3; stroke:none;" d="M388 334L389 335L388 334z"/>
<path style="fill:#91afab; stroke:none;" d="M457 334L456 336L457 334z"/>
<path style="fill:#5f918b; stroke:none;" d="M136 335L138 338L136 335z"/>
<path style="fill:#b1c5c3; stroke:none;" d="M137 335L138 336L137 335z"/>
<path style="fill:#91afab; stroke:none;" d="M162 335L163 336L162 335M183 335L184 336L183 335z"/>
<path style="fill:#b1c5c3; stroke:none;" d="M184 335L185 336L184 335z"/>
<path style="fill:#91afab; stroke:none;" d="M208 335L209 336L208 335M272 335L275 338L272 335z"/>
<path style="fill:#b1c5c3; stroke:none;" d="M289 335L290 336L289 335z"/>
<path style="fill:#91afab; stroke:none;" d="M316 335L317 336L316 335z"/>
<path style="fill:#b1c5c3; stroke:none;" d="M325 335L326 336L325 335z"/>
<path style="fill:#91afab; stroke:none;" d="M348.667 335.333L349.333 335.667L348.667 335.333z"/>
<path style="fill:#b1c5c3; stroke:none;" d="M350.667 335.333L351.333 335.667L350.667 335.333z"/>
<path style="fill:#91afab; stroke:none;" d="M382.667 335.333L383.333 335.667L382.667 335.333z"/>
<path style="fill:#b1c5c3; stroke:none;" d="M386 335L387 336L386 335z"/>
<path style="fill:#91afab; stroke:none;" d="M442 335L442 338L443 338L442 335z"/>
<path style="fill:#b1c5c3; stroke:none;" d="M457 335L458 336L457 335z"/>
<path style="fill:#91afab; stroke:none;" d="M465 335L466 336L465 335M137 336L138 337L137 336z"/>
<path style="fill:#b1c5c3; stroke:none;" d="M163.667 336.333L164.333 336.667L163.667 336.333z"/>
<path style="fill:#91afab; stroke:none;" d="M165.667 336.333L166.333 336.667L165.667 336.333z"/>
<path style="fill:#5f918b; stroke:none;" d="M167 336L167 337L171 337L167 336M174 336L174 337L179 337L174 336z"/>
<path style="fill:#91afab; stroke:none;" d="M179 336L180 337L179 336z"/>
<path style="fill:#b1c5c3; stroke:none;" d="M180 336L180 337L183 337L180 336M206 336L207 337L206 336z"/>
<path style="fill:#91afab; stroke:none;" d="M207 336L208 337L207 336z"/>
<path style="fill:#b1c5c3; stroke:none;" d="M272 336L273 337L272 336z"/>
<path style="fill:#5f918b; stroke:none;" d="M286 336L283 338L283 339L287 337L286 336z"/>
<path style="fill:#91afab; stroke:none;" d="M287 336L286 338L287 336z"/>
<path style="fill:#b1c5c3; stroke:none;" d="M288 336L289 337L288 336M317 336L318 337L317 336z"/>
<path style="fill:#91afab; stroke:none;" d="M322 336L323 337L322 336z"/>
<path style="fill:#b1c5c3; stroke:none;" d="M323.667 336.333L324.333 336.667L323.667 336.333M383 336L383 337L386 337L383 336M456 336L457 337L456 336M465 336L465 340L466 340L465 336M138 337L140 339L138 337M166 337L166 338L169 338L166 337z"/>
<path style="fill:#91afab; stroke:none;" d="M169 337L169 338L177 338L169 337z"/>
<path style="fill:#b1c5c3; stroke:none;" d="M177.667 337.333L178.333 337.667L177.667 337.333z"/>
<path style="fill:#91afab; stroke:none;" d="M206 337L207 338L206 337z"/>
<path style="fill:#5f918b; stroke:none;" d="M225 337L227 344L228 344L225 337z"/>
<path style="fill:#b1c5c3; stroke:none;" d="M273 337L274 338L273 337M287 337L288 338L287 337M318 337L318 338L323 338L318 337z"/>
<path style="fill:#91afab; stroke:none;" d="M455 337L456 338L455 337z"/>
<path style="fill:#5f918b; stroke:none;" d="M466 337L466 340L467 340L466 337z"/>
<path style="fill:#91afab; stroke:none;" d="M138 338L140 340L138 338M205 338L206 339L205 338z"/>
<path style="fill:#b1c5c3; stroke:none;" d="M275 338L276 339L275 338z"/>
<path style="fill:#91afab; stroke:none;" d="M284 338L285 339L284 338z"/>
<path style="fill:#b1c5c3; stroke:none;" d="M285 338L286 339L285 338z"/>
<path style="fill:#5f918b; stroke:none;" d="M454 338L447 348L454 338z"/>
<path style="fill:#b1c5c3; stroke:none;" d="M455 338L454 340L456 340L455 338z"/>
<path style="fill:#5f918b; stroke:none;" d="M138 339L139 340L138 339z"/>
<path style="fill:#b1c5c3; stroke:none;" d="M203 339L199 344L203 339z"/>
<path style="fill:#91afab; stroke:none;" d="M204 339L205 340L204 339M226 339L227 340L226 339z"/>
<path style="fill:#b1c5c3; stroke:none;" d="M255 340L255 341L259 340L255 340M276 339L277 340L276 339z"/>
<path style="fill:#91afab; stroke:none;" d="M277 339L277 340L283 340L277 339z"/>
<path style="fill:#b1c5c3; stroke:none;" d="M283.667 339.333L284.333 339.667L283.667 339.333M363.667 339.333L364.333 339.667L363.667 339.333z"/>
<path style="fill:#91afab; stroke:none;" d="M365 339L368 342L365 339z"/>
<path style="fill:#b1c5c3; stroke:none;" d="M366 339L367 340L366 339M393 346C398.252 342.431 401.185 339.31 406 345C405.394 335.539 396.07 341.747 393 346z"/>
<path style="fill:#5f918b; stroke:none;" d="M139 340L148 350L139 340z"/>
<path style="fill:#b1c5c3; stroke:none;" d="M140 340L142 342L140 340z"/>
<path style="fill:#91afab; stroke:none;" d="M203 340L204 341L203 340z"/>
<path style="fill:#5f918b; stroke:none;" d="M256 340L256 341L260 343L256 340z"/>
<path style="fill:#91afab; stroke:none;" d="M363 340L364 341L363 340z"/>
<path style="fill:#5f918b; stroke:none;" d="M364.667 340.333L365.333 340.667L364.667 340.333z"/>
<path style="fill:#b1c5c3; stroke:none;" d="M367 340L368 341L367 340z"/>
<path style="fill:#5f918b; stroke:none;" d="M400 340L400 341L403 341L400 340z"/>
<path style="fill:#91afab; stroke:none;" d="M465 340L466 341L465 340M140 341L141 342L140 341z"/>
<path style="fill:#5f918b; stroke:none;" d="M202.667 341.333L203.333 341.667L202.667 341.333z"/>
<path style="fill:#b1c5c3; stroke:none;" d="M227.333 341.667L227.667 342.333L227.333 341.667z"/>
<path style="fill:#91afab; stroke:none;" d="M254 341L250 346L254 341z"/>
<path style="fill:#5f918b; stroke:none;" d="M255 341L256 342L255 341z"/>
<path style="fill:#b1c5c3; stroke:none;" d="M259 341L260 342L259 341M362 341L361 343L362 341z"/>
<path style="fill:#5f918b; stroke:none;" d="M363 341L364 342L363 341M366 341L367 342L366 341z"/>
<path style="fill:#91afab; stroke:none;" d="M398 341L397 343L398 341z"/>
<path style="fill:#5f918b; stroke:none;" d="M399 341L400 342L399 341M403 341L405 344L403 341z"/>
<path style="fill:#b1c5c3; stroke:none;" d="M424 341L423 343L424 341z"/>
<path style="fill:#91afab; stroke:none;" d="M424 343L427 342L424 343z"/>
<path style="fill:#b1c5c3; stroke:none;" d="M441 341L441 345L442 345L441 341M453 341L452 344L453 341M464 341L465 342L464 341z"/>
<path style="fill:#5f918b; stroke:none;" d="M465 341L464 345L465 345L465 341z"/>
<path style="fill:#91afab; stroke:none;" d="M141 342L142 343L141 342M201 342L202 343L201 342z"/>
<path style="fill:#5f918b; stroke:none;" d="M254 342L255 343L254 342z"/>
<path style="fill:#b1c5c3; stroke:none;" d="M260 342L261 343L260 342M300 342L301 343L300 342z"/>
<path style="fill:#91afab; stroke:none;" d="M301 342L304 345L301 342z"/>
<path style="fill:#b1c5c3; stroke:none;" d="M302 342L303 343L302 342z"/>
<path style="fill:#5f918b; stroke:none;" d="M362 342L363 343L362 342M367 342L368 343L367 342z"/>
<path style="fill:#b1c5c3; stroke:none;" d="M368 342L370 344L368 342z"/>
<path style="fill:#5f918b; stroke:none;" d="M398 342L399 343L398 342M425 342L426 353L427 353L425 342z"/>
<path style="fill:#91afab; stroke:none;" d="M452 342L453 343L452 342M464 342L465 343L464 342M142 343L143 344L142 343z"/>
<path style="fill:#5f918b; stroke:none;" d="M200 343L201 344L200 343z"/>
<path style="fill:#b1c5c3; stroke:none;" d="M228 343L234 348L234 347L228 343z"/>
<path style="fill:#5f918b; stroke:none;" d="M253 343L254 344L253 343z"/>
<path style="fill:#91afab; stroke:none;" d="M260 343L261 344L260 343M299 343L297 346L299 343z"/>
<path style="fill:#5f918b; stroke:none;" d="M300 343L301 344L300 343M361.333 343.667L361.667 344.333L361.333 343.667z"/>
<path style="fill:#91afab; stroke:none;" d="M368 343L370 345L368 343M396 343L397 344L396 343M423 343L424 344L423 343z"/>
<path style="fill:#b1c5c3; stroke:none;" d="M463 343L462 346L463 343M143 344L144 345L143 344M197 344L196 346L197 344z"/>
<path style="fill:#91afab; stroke:none;" d="M198 344L199 345L198 344z"/>
<path style="fill:#5f918b; stroke:none;" d="M199 344L200 345L199 344z"/>
<path style="fill:#91afab; stroke:none;" d="M228 344L232 348L228 344z"/>
<path style="fill:#b1c5c3; stroke:none;" d="M250 344L251 345L250 344z"/>
<path style="fill:#5f918b; stroke:none;" d="M252 344L253 345L252 344M260 344L265 350L260 344z"/>
<path style="fill:#b1c5c3; stroke:none;" d="M261 344L262 345L261 344M297 344L298 345L297 344z"/>
<path style="fill:#5f918b; stroke:none;" d="M299 344L300 345L299 344M302 344L303 345L302 344z"/>
<path style="fill:#b1c5c3; stroke:none;" d="M359 344L354 351L359 344z"/>
<path style="fill:#91afab; stroke:none;" d="M360 344L361 345L360 344z"/>
<path style="fill:#5f918b; stroke:none;" d="M368 344L369 345L368 344M395.667 344.333L396.333 344.667L395.667 344.333z"/>
<path style="fill:#91afab; stroke:none;" d="M405 344L407 346L405 344z"/>
<path style="fill:#b1c5c3; stroke:none;" d="M422 344L418 347L418 348L422 344z"/>
<path style="fill:#5f918b; stroke:none;" d="M423 344L424 345L423 344z"/>
<path style="fill:#b1c5c3; stroke:none;" d="M451 344L452 345L451 344M144 345L145 346L144 345z"/>
<path style="fill:#5f918b; stroke:none;" d="M197 345L198 346L197 345M228 345L229 346L228 345M251 345L252 346L251 345z"/>
<path style="fill:#b1c5c3; stroke:none;" d="M262 345L269 351L269 350L262 345z"/>
<path style="fill:#5f918b; stroke:none;" d="M303 345L304 346L303 345z"/>
<path style="fill:#b1c5c3; stroke:none;" d="M304 345L305 346L304 345M331 345L331 346L336 347L331 345z"/>
<path style="fill:#5f918b; stroke:none;" d="M369 345L372 348L369 345z"/>
<path style="fill:#b1c5c3; stroke:none;" d="M370 345L371 346L370 345z"/>
<path style="fill:#5f918b; stroke:none;" d="M394 345L395 346L394 345M405 345L406 346L405 345M422 345L423 346L422 345z"/>
<path style="fill:#b1c5c3; stroke:none;" d="M427 345L427 348L428 348L427 345z"/>
<path style="fill:#91afab; stroke:none;" d="M441 345L441 349L442 349L441 345z"/>
<path style="fill:#b1c5c3; stroke:none;" d="M450 345L451 346L450 345z"/>
<path style="fill:#91afab; stroke:none;" d="M463 345L462 347L463 345M145 346L146 347L145 346z"/>
<path style="fill:#b1c5c3; stroke:none;" d="M194 346L193 348L194 346z"/>
<path style="fill:#91afab; stroke:none;" d="M195 346L194 348L195 346z"/>
<path style="fill:#5f918b; stroke:none;" d="M196 346L197 347L196 346M229 346L230 347L229 346z"/>
<path style="fill:#b1c5c3; stroke:none;" d="M247 346L244 347L244 348L248 347L247 346z"/>
<path style="fill:#91afab; stroke:none;" d="M248 346L249 347L248 346z"/>
<path style="fill:#5f918b; stroke:none;" d="M249.667 346.333L250.333 346.667L249.667 346.333z"/>
<path style="fill:#91afab; stroke:none;" d="M262 346L263 347L262 346z"/>
<path style="fill:#b1c5c3; stroke:none;" d="M295 346L294 348L295 346z"/>
<path style="fill:#5f918b; stroke:none;" d="M296.667 346.333L297.333 346.667L296.667 346.333z"/>
<path style="fill:#91afab; stroke:none;" d="M304 346L305 347L304 346z"/>
<path style="fill:#b1c5c3; stroke:none;" d="M329 346L330 347L329 346z"/>
<path style="fill:#91afab; stroke:none;" d="M330 346L326 351L330 346z"/>
<path style="fill:#5f918b; stroke:none;" d="M331 346L331 347L336 349L331 346z"/>
<path style="fill:#91afab; stroke:none;" d="M334 346L335 347L334 346z"/>
<path style="fill:#5f918b; stroke:none;" d="M359 346L360 347L359 346z"/>
<path style="fill:#91afab; stroke:none;" d="M371 346L373 348L371 346z"/>
<path style="fill:#b1c5c3; stroke:none;" d="M372 346L373 347L372 346M391 346L389 347L389 348L391 346z"/>
<path style="fill:#91afab; stroke:none;" d="M392 346L393 347L392 346z"/>
<path style="fill:#5f918b; stroke:none;" d="M393 346L394 347L393 346M406 346L412 350L412 349L406 346z"/>
<path style="fill:#b1c5c3; stroke:none;" d="M407 346L408 347L407 346z"/>
<path style="fill:#5f918b; stroke:none;" d="M421 346L422 347L421 346z"/>
<path style="fill:#b1c5c3; stroke:none;" d="M440 346L441 355L449 348L441 353L440 346M449 346L450 347L449 346z"/>
<path style="fill:#5f918b; stroke:none;" d="M463 346L464 347L463 346z"/>
<path style="fill:#b1c5c3; stroke:none;" d="M146 347L147 348L146 347z"/>
<path style="fill:#5f918b; stroke:none;" d="M195 347L196 348L195 347M230 347L231 348L230 347M247.667 347.333L248.333 347.667L247.667 347.333z"/>
<path style="fill:#91afab; stroke:none;" d="M263 347L264 348L263 347z"/>
<path style="fill:#5f918b; stroke:none;" d="M295 347L296 348L295 347M304 347L305 350L306 350L304 347z"/>
<path style="fill:#b1c5c3; stroke:none;" d="M305 347L306 348L305 347z"/>
<path style="fill:#5f918b; stroke:none;" d="M330 347L331 348L330 347z"/>
<path style="fill:#91afab; stroke:none;" d="M335 347L336 348L335 347z"/>
<path style="fill:#5f918b; stroke:none;" d="M358 347L359 348L358 347z"/>
<path style="fill:#b1c5c3; stroke:none;" d="M373 347L374 348L373 347z"/>
<path style="fill:#5f918b; stroke:none;" d="M391 347L392 348L391 347z"/>
<path style="fill:#b1c5c3; stroke:none;" d="M408.667 347.333L409.333 347.667L408.667 347.333z"/>
<path style="fill:#5f918b; stroke:none;" d="M420 347L421 348L420 347z"/>
<path style="fill:#91afab; stroke:none;" d="M448 347L449 348L448 347z"/>
<path style="fill:#b1c5c3; stroke:none;" d="M461 347L460 350L461 350L461 347z"/>
<path style="fill:#5f918b; stroke:none;" d="M462 347L461 350L462 347z"/>
<path style="fill:#91afab; stroke:none;" d="M147 348L148 349L147 348z"/>
<path style="fill:#b1c5c3; stroke:none;" d="M191 348L188 350L188 351L192 349L191 348z"/>
<path style="fill:#91afab; stroke:none;" d="M192 348L191 350L192 348z"/>
<path style="fill:#5f918b; stroke:none;" d="M193 348L194 349L193 348M232 348L232 349L236 350L236 349L232 348z"/>
<path style="fill:#91afab; stroke:none;" d="M234 348L235 349L234 348z"/>
<path style="fill:#b1c5c3; stroke:none;" d="M235 348L236 349L235 348M242 348L243 349L242 348z"/>
<path style="fill:#91afab; stroke:none;" d="M243 348L244 349L243 348z"/>
<path style="fill:#5f918b; stroke:none;" d="M242 349L242 350L246 349L242 349z"/>
<path style="fill:#91afab; stroke:none;" d="M264 348L265 349L264 348z"/>
<path style="fill:#b1c5c3; stroke:none;" d="M292 348L289 350L289 351L293 349L292 348z"/>
<path style="fill:#91afab; stroke:none;" d="M293 348L292 350L293 348z"/>
<path style="fill:#5f918b; stroke:none;" d="M294 348L295 349L294 348z"/>
<path style="fill:#b1c5c3; stroke:none;" d="M306 348L309 351L306 348z"/>
<path style="fill:#5f918b; stroke:none;" d="M329 348L330 349L329 348z"/>
<path style="fill:#b1c5c3; stroke:none;" d="M336 348L338 350L336 348z"/>
<path style="fill:#5f918b; stroke:none;" d="M357 348L358 349L357 348M373 348L376 350L376 349L373 348z"/>
<path style="fill:#91afab; stroke:none;" d="M374 348L375 349L374 348z"/>
<path style="fill:#b1c5c3; stroke:none;" d="M375 348L376 349L375 348M387 348L388 349L387 348z"/>
<path style="fill:#91afab; stroke:none;" d="M388 348L389 349L388 348z"/>
<path style="fill:#5f918b; stroke:none;" d="M389 348L390 349L389 348z"/>
<path style="fill:#91afab; stroke:none;" d="M410 348L411 349L410 348z"/>
<path style="fill:#b1c5c3; stroke:none;" d="M411 348L412 349L411 348M415.667 348.333L416.333 348.667L415.667 348.333z"/>
<path style="fill:#91afab; stroke:none;" d="M417 348L418 349L417 348z"/>
<path style="fill:#5f918b; stroke:none;" d="M418 348L419 349L418 348z"/>
<path style="fill:#91afab; stroke:none;" d="M447 348L448 349L447 348M461 348L462 349L461 348M148 349L149 350L148 349z"/>
<path style="fill:#b1c5c3; stroke:none;" d="M149 349L149 350L152 351L149 349z"/>
<path style="fill:#5f918b; stroke:none;" d="M192 349L193 350L192 349z"/>
<path style="fill:#91afab; stroke:none;" d="M236 349L236 350L242 350L236 349M265 349L266 350L265 349z"/>
<path style="fill:#5f918b; stroke:none;" d="M293 349L294 350L293 349z"/>
<path style="fill:#91afab; stroke:none;" d="M306 349L307 350L306 349z"/>
<path style="fill:#b1c5c3; stroke:none;" d="M326 349L327 350L326 349z"/>
<path style="fill:#5f918b; stroke:none;" d="M328 349L329 350L328 349z"/>
<path style="fill:#91afab; stroke:none;" d="M336 349L340 353L336 349z"/>
<path style="fill:#5f918b; stroke:none;" d="M356 349L357 350L356 349z"/>
<path style="fill:#91afab; stroke:none;" d="M376.667 349.333L377.333 349.667L376.667 349.333z"/>
<path style="fill:#b1c5c3; stroke:none;" d="M378 349L378 350L385 350L378 349z"/>
<path style="fill:#91afab; stroke:none;" d="M385.667 349.333L386.333 349.667L385.667 349.333z"/>
<path style="fill:#5f918b; stroke:none;" d="M387.667 349.333L388.333 349.667L387.667 349.333z"/>
<path style="fill:#91afab; stroke:none;" d="M412 349L412 350L415 350L412 349z"/>
<path style="fill:#5f918b; stroke:none;" d="M415 349L415 350L418 350L415 349M441 349C441.191 351.48 442.216 354.177 444 351L441 349M445.667 349.333L446.333 349.667L445.667 349.333M149 350L149 351L154 353L154 352L149 350z"/>
<path style="fill:#91afab; stroke:none;" d="M150 350L151 351L150 350z"/>
<path style="fill:#5f918b; stroke:none;" d="M189 350L190 351L189 350M266 350L266 351L271 353L271 352L266 350z"/>
<path style="fill:#91afab; stroke:none;" d="M267 350L268 351L267 350M290 350L291 351L290 350z"/>
<path style="fill:#5f918b; stroke:none;" d="M291 350L292 351L291 350M307 350L308 351L307 350M327 350L328 351L327 350M336 350L337 351L336 350M355 350L356 351L355 350M379 350L379 351L384 351L379 350z"/>
<path style="fill:#91afab; stroke:none;" d="M445 350L446 351L445 350M460 350L459 352L460 350M152 351L153 352L152 351z"/>
<path style="fill:#b1c5c3; stroke:none;" d="M153 351L154 352L153 351M185 351L186 352L185 351z"/>
<path style="fill:#91afab; stroke:none;" d="M186 351L187 352L186 351z"/>
<path style="fill:#5f918b; stroke:none;" d="M187.667 351.333L188.333 351.667L187.667 351.333z"/>
<path style="fill:#91afab; stroke:none;" d="M269 351L270 352L269 351z"/>
<path style="fill:#b1c5c3; stroke:none;" d="M270 351L271 352L270 351M286 351L282 352L282 353L287 352L286 351z"/>
<path style="fill:#91afab; stroke:none;" d="M286 353L289 352L286 353z"/>
<path style="fill:#5f918b; stroke:none;" d="M289.667 351.333L290.333 351.667L289.667 351.333M308 351L311 353L311 352L308 351z"/>
<path style="fill:#91afab; stroke:none;" d="M309 351L310 352L309 351z"/>
<path style="fill:#b1c5c3; stroke:none;" d="M310 351L311 352L310 351M323 351L320 352L320 353L324 352L323 351z"/>
<path style="fill:#91afab; stroke:none;" d="M324 351L323 353L324 351z"/>
<path style="fill:#5f918b; stroke:none;" d="M325.667 351.333L326.333 351.667L325.667 351.333M337 351L338 352L337 351z"/>
<path style="fill:#b1c5c3; stroke:none;" d="M339 351L340 352L339 351M352 351L353 352L352 351z"/>
<path style="fill:#91afab; stroke:none;" d="M353 351L354 352L353 351z"/>
<path style="fill:#5f918b; stroke:none;" d="M354 351L355 352L354 351z"/>
<path style="fill:#91afab; stroke:none;" d="M444 351L445 352L444 351z"/>
<path style="fill:#5f918b; stroke:none;" d="M460 351L461 352L460 351z"/>
<path style="fill:#91afab; stroke:none;" d="M154 352L155 353L154 352z"/>
<path style="fill:#b1c5c3; stroke:none;" d="M155.667 352.333L156.333 352.667L155.667 352.333M182.667 352.333L183.333 352.667L182.667 352.333z"/>
<path style="fill:#91afab; stroke:none;" d="M184 352L185 353L184 352z"/>
<path style="fill:#5f918b; stroke:none;" d="M185.667 352.333L186.333 352.667L185.667 352.333z"/>
<path style="fill:#91afab; stroke:none;" d="M271 352L272 353L271 352z"/>
<path style="fill:#b1c5c3; stroke:none;" d="M272 352L272 353L276 353L272 352z"/>
<path style="fill:#5f918b; stroke:none;" d="M287 352L288 353L287 352z"/>
<path style="fill:#91afab; stroke:none;" d="M311 352L312 353L311 352z"/>
<path style="fill:#b1c5c3; stroke:none;" d="M312.667 352.333L313.333 352.667L312.667 352.333z"/>
<path style="fill:#5f918b; stroke:none;" d="M324 352L325 353L324 352M338 352L339 353L338 352z"/>
<path style="fill:#b1c5c3; stroke:none;" d="M340 352L341 353L340 352M350 352L351 353L350 352z"/>
<path style="fill:#91afab; stroke:none;" d="M351 352L352 353L351 352z"/>
<path style="fill:#5f918b; stroke:none;" d="M352.667 352.333L353.333 352.667L352.667 352.333z"/>
<path style="fill:#b1c5c3; stroke:none;" d="M458 352L456 356L457 356L458 352z"/>
<path style="fill:#5f918b; stroke:none;" d="M459 352L460 353L459 352M155 353L155 354L160 355L160 354L155 353z"/>
<path style="fill:#91afab; stroke:none;" d="M157.667 353.333L158.333 353.667L157.667 353.333z"/>
<path style="fill:#b1c5c3; stroke:none;" d="M159 353L160 354L159 353M179 353L180 354L179 353z"/>
<path style="fill:#91afab; stroke:none;" d="M180.667 353.333L181.333 353.667L180.667 353.333z"/>
<path style="fill:#5f918b; stroke:none;" d="M182.667 353.333L183.333 353.667L182.667 353.333M273 353L273 354L285 354L285 353L273 353z"/>
<path style="fill:#91afab; stroke:none;" d="M276 353L276 354L281 354L276 353z"/>
<path style="fill:#5f918b; stroke:none;" d="M312 353L312 354L322 354L322 353L312 353z"/>
<path style="fill:#91afab; stroke:none;" d="M315 353L315 354L319 354L315 353z"/>
<path style="fill:#5f918b; stroke:none;" d="M339 353L339 354L343 355L343 354L339 353z"/>
<path style="fill:#91afab; stroke:none;" d="M341 353L342 354L341 353z"/>
<path style="fill:#b1c5c3; stroke:none;" d="M342.667 353.333L343.333 353.667L342.667 353.333M347.667 353.333L348.333 353.667L347.667 353.333z"/>
<path style="fill:#91afab; stroke:none;" d="M349 353L350 354L349 353z"/>
<path style="fill:#5f918b; stroke:none;" d="M350.667 353.333L351.333 353.667L350.667 353.333z"/>
<path style="fill:#91afab; stroke:none;" d="M426 353L426 356L427 356L426 353z"/>
<path style="fill:#5f918b; stroke:none;" d="M458 353L457 356L458 353z"/>
<path style="fill:#91afab; stroke:none;" d="M160.667 354.333L161.333 354.667L160.667 354.333z"/>
<path style="fill:#b1c5c3; stroke:none;" d="M162 354L162 355L177 355L162 354z"/>
<path style="fill:#91afab; stroke:none;" d="M177.667 354.333L178.333 354.667L177.667 354.333z"/>
<path style="fill:#5f918b; stroke:none;" d="M179 354L179 355L182 355L179 354z"/>
<path style="fill:#91afab; stroke:none;" d="M343 354L343 355L347 355L343 354z"/>
<path style="fill:#5f918b; stroke:none;" d="M347 354L347 355L350 355L347 354M425 354L425 357L426 357L425 354z"/>
<path style="fill:#91afab; stroke:none;" d="M457 354L458 355L457 354z"/>
<path style="fill:#5f918b; stroke:none;" d="M163 355L163 356L176 356L163 355z"/>
<path style="fill:#b1c5c3; stroke:none;" d="M426 356L425 359L426 356z"/>
<path style="fill:#91afab; stroke:none;" d="M455 356L452 360L455 356z"/>
<path style="fill:#5f918b; stroke:none;" d="M456 356L457 357L456 356z"/>
<path style="fill:#91afab; stroke:none;" d="M425 357L426 358L425 357z"/>
<path style="fill:#b1c5c3; stroke:none;" d="M453 357L454 358L453 357z"/>
<path style="fill:#5f918b; stroke:none;" d="M455 357L456 358L455 357M398 358L398 359L412 359L398 358M424 358L417 359L417 360L425 359L424 358M454 358L455 359L454 358M390 360L390 361L395 360L390 360z"/>
<path style="fill:#91afab; stroke:none;" d="M395 359L395 360L399 360L395 359z"/>
<path style="fill:#b1c5c3; stroke:none;" d="M399 359L399 360L410 360L399 359z"/>
<path style="fill:#91afab; stroke:none;" d="M410 359L410 360L417 360L410 359M424 359L425 360L424 359z"/>
<path style="fill:#5f918b; stroke:none;" d="M453 359L454 360L453 359z"/>
<path style="fill:#91afab; stroke:none;" d="M391 360L392 361L391 360z"/>
<path style="fill:#b1c5c3; stroke:none;" d="M392 360L393 361L392 360M420.667 360.333L421.333 360.667L420.667 360.333M451 360L452 361L451 360z"/>
<path style="fill:#5f918b; stroke:none;" d="M452 360L453 361L452 360M378 369L388 362C383.57 361.636 380.413 365.648 378 369z"/>
<path style="fill:#91afab; stroke:none;" d="M388 361L389 362L388 361z"/>
<path style="fill:#b1c5c3; stroke:none;" d="M389 361L389 362L392 362L389 361M449 361L448 363L449 361z"/>
<path style="fill:#91afab; stroke:none;" d="M450 361L451 362L450 361z"/>
<path style="fill:#5f918b; stroke:none;" d="M451 361L452 362L451 361z"/>
<path style="fill:#b1c5c3; stroke:none;" d="M387 362L388 363L387 362z"/>
<path style="fill:#5f918b; stroke:none;" d="M449.667 362.333L450.333 362.667L449.667 362.333z"/>
<path style="fill:#b1c5c3; stroke:none;" d="M385.667 363.333L386.333 363.667L385.667 363.333z"/>
<path style="fill:#91afab; stroke:none;" d="M447 363L446 365L447 363z"/>
<path style="fill:#5f918b; stroke:none;" d="M448 363L449 364L448 363z"/>
<path style="fill:#91afab; stroke:none;" d="M383 364L384 365L383 364z"/>
<path style="fill:#b1c5c3; stroke:none;" d="M384 364L385 365L384 364M443 366L446 365L443 366z"/>
<path style="fill:#5f918b; stroke:none;" d="M447 364L448 365L447 364z"/>
<path style="fill:#91afab; stroke:none;" d="M382 365L378 370L382 365M444 365L445 366L444 365z"/>
<path style="fill:#5f918b; stroke:none;" d="M445 365L446 366L445 365z"/>
<path style="fill:#b1c5c3; stroke:none;" d="M382 366L383 367L382 366M441 366L440 368L441 366z"/>
<path style="fill:#91afab; stroke:none;" d="M442 366L443 367L442 366z"/>
<path style="fill:#5f918b; stroke:none;" d="M443.667 366.333L444.333 366.667L443.667 366.333z"/>
<path style="fill:#b1c5c3; stroke:none;" d="M381 367L382 368L381 367z"/>
<path style="fill:#5f918b; stroke:none;" d="M441 367L442 368L441 367z"/>
<path style="fill:#b1c5c3; stroke:none;" d="M380 368L381 369L380 368M437 368L435 373L436 373L437 368z"/>
<path style="fill:#91afab; stroke:none;" d="M438 368L439 369L438 368z"/>
<path style="fill:#5f918b; stroke:none;" d="M439.667 368.333L440.333 368.667L439.667 368.333z"/>
<path style="fill:#b1c5c3; stroke:none;" d="M379 369L380 370L379 369M397 370L397 371L413 370L397 370z"/>
<path style="fill:#5f918b; stroke:none;" d="M437.667 369.333L438.333 369.667L437.667 369.333M377 370L376 373L377 373L377 370z"/>
<path style="fill:#b1c5c3; stroke:none;" d="M378 370L379 371L378 370z"/>
<path style="fill:#91afab; stroke:none;" d="M399.667 370.333L400.333 370.667L399.667 370.333z"/>
<path style="fill:#5f918b; stroke:none;" d="M396 371L396 372C402.85 372 414.4 369.758 420 374C420.981 368.048 399.863 370.741 396 371z"/>
<path style="fill:#91afab; stroke:none;" d="M411 370L411 371L414 371L411 370z"/>
<path style="fill:#b1c5c3; stroke:none;" d="M414 370L414 371L419 371L414 370z"/>
<path style="fill:#91afab; stroke:none;" d="M377 371L378 372L377 371z"/>
<path style="fill:#b1c5c3; stroke:none;" d="M393 371C387.129 375.527 383.449 381.219 390 387C386.491 380.007 387.851 376.741 394 372L393 371z"/>
<path style="fill:#91afab; stroke:none;" d="M394.667 371.333L395.333 371.667L394.667 371.333M420 371L422 373L420 371z"/>
<path style="fill:#b1c5c3; stroke:none;" d="M421 371L422 372L421 371z"/>
<path style="fill:#91afab; stroke:none;" d="M436 371L437 372L436 371z"/>
<path style="fill:#b1c5c3; stroke:none;" d="M377 372L378 373L377 372z"/>
<path style="fill:#5f918b; stroke:none;" d="M388 378L389 378L395 373C391.336 372.508 389.53 374.896 388 378z"/>
<path style="fill:#01655b; stroke:none;" d="M420 372L406 372C400.907 372 379.223 375.938 390.434 385.142C399.352 392.465 417.493 380.932 420 372z"/>
<path style="fill:#5f918b; stroke:none;" d="M436 372L434 378L435 378L436 372z"/>
<path style="fill:#91afab; stroke:none;" d="M376 373L377 374L376 373z"/>
<path style="fill:#b1c5c3; stroke:none;" d="M421 373L419 377L421 373z"/>
<path style="fill:#91afab; stroke:none;" d="M435 373L436 374L435 373z"/>
<path style="fill:#5f918b; stroke:none;" d="M375 374L376 375L375 374z"/>
<path style="fill:#b1c5c3; stroke:none;" d="M376 374L375 378L376 378L376 374z"/>
<path style="fill:#91afab; stroke:none;" d="M420 374L421 375L420 374M375 375L376 376L375 375z"/>
<path style="fill:#5f918b; stroke:none;" d="M419 375L420 376L419 375z"/>
<path style="fill:#b1c5c3; stroke:none;" d="M434 375L433 378L434 378L434 375z"/>
<path style="fill:#5f918b; stroke:none;" d="M374 376L375 389L376 389L374 376M418 376L405 385L405 386C410.102 384.527 416.649 381.551 418 376z"/>
<path style="fill:#91afab; stroke:none;" d="M434 376L435 377L434 376M387.333 377.667L387.667 378.333L387.333 377.667M418 377L419 378L418 377z"/>
<path style="fill:#b1c5c3; stroke:none;" d="M417.667 378.333L418.333 378.667L417.667 378.333z"/>
<path style="fill:#91afab; stroke:none;" d="M433 378L434 379L433 378z"/>
<path style="fill:#5f918b; stroke:none;" d="M387 379L387 383L388 383L387 379z"/>
<path style="fill:#91afab; stroke:none;" d="M416 379L417 380L416 379z"/>
<path style="fill:#b1c5c3; stroke:none;" d="M432 379L431 381L432 379z"/>
<path style="fill:#5f918b; stroke:none;" d="M433 379L434 380L433 379z"/>
<path style="fill:#b1c5c3; stroke:none;" d="M415.333 380.667L415.667 381.333L415.333 380.667z"/>
<path style="fill:#5f918b; stroke:none;" d="M432 380L430 385L431 385L432 380z"/>
<path style="fill:#91afab; stroke:none;" d="M414 381L415 382L414 381M431 381L432 382L431 381z"/>
<path style="fill:#b1c5c3; stroke:none;" d="M413 382L414 383L413 382M430 382L431 383L430 382z"/>
<path style="fill:#5f918b; stroke:none;" d="M388.333 383.667L388.667 384.333L388.333 383.667z"/>
<path style="fill:#91afab; stroke:none;" d="M411 383L412 384L411 383z"/>
<path style="fill:#b1c5c3; stroke:none;" d="M412 383L413 384L412 383M429 383L428 385L429 383z"/>
<path style="fill:#91afab; stroke:none;" d="M409 384L410 385L409 384z"/>
<path style="fill:#b1c5c3; stroke:none;" d="M410 384L411 385L410 384z"/>
<path style="fill:#91afab; stroke:none;" d="M429 384L430 385L429 384z"/>
<path style="fill:#b1c5c3; stroke:none;" d="M375 385L376 389L377 389L375 385z"/>
<path style="fill:#5f918b; stroke:none;" d="M389 385L390 386L389 385z"/>
<path style="fill:#91afab; stroke:none;" d="M407 385L408 386L407 385z"/>
<path style="fill:#b1c5c3; stroke:none;" d="M408 385L409 386L408 385z"/>
<path style="fill:#91afab; stroke:none;" d="M428 385L427 387L428 385M375 386L376 387L375 386M390 386L391 387L390 386z"/>
<path style="fill:#5f918b; stroke:none;" d="M391 386L391 387L404 387L404 386L391 386z"/>
<path style="fill:#91afab; stroke:none;" d="M404.667 386.333L405.333 386.667L404.667 386.333z"/>
<path style="fill:#b1c5c3; stroke:none;" d="M406.667 386.333L407.333 386.667L406.667 386.333z"/>
<path style="fill:#5f918b; stroke:none;" d="M428 386L429 387L428 386z"/>
<path style="fill:#b1c5c3; stroke:none;" d="M391 387L391 388L402 389L402 388L391 387z"/>
<path style="fill:#91afab; stroke:none;" d="M392 387L393 388L392 387M401.667 387.333L402.333 387.667L401.667 387.333z"/>
<path style="fill:#b1c5c3; stroke:none;" d="M403 387L404 388L403 387M426 387L427 388L426 387z"/>
<path style="fill:#5f918b; stroke:none;" d="M427 387L428 388L427 387z"/>
<path style="fill:#91afab; stroke:none;" d="M425 388L426 389L425 388z"/>
<path style="fill:#5f918b; stroke:none;" d="M426 388L427 389L426 388z"/>
<path style="fill:#91afab; stroke:none;" d="M376 389L378 391L376 389z"/>
<path style="fill:#b1c5c3; stroke:none;" d="M421 392L425 390L421 392z"/>
<path style="fill:#5f918b; stroke:none;" d="M425 389L426 390L425 389M376 390L377 391L376 390z"/>
<path style="fill:#91afab; stroke:none;" d="M423 390L422 392L423 390z"/>
<path style="fill:#5f918b; stroke:none;" d="M377 391L378 392L377 391z"/>
<path style="fill:#b1c5c3; stroke:none;" d="M378 391L383 396L378 391z"/>
<path style="fill:#5f918b; stroke:none;" d="M423 391L424 392L423 391z"/>
<path style="fill:#91afab; stroke:none;" d="M378 392L381 395L378 392M420 392L419 394L420 392z"/>
<path style="fill:#5f918b; stroke:none;" d="M421 392L422 393L421 392M378 393L379 394L378 393z"/>
<path style="fill:#b1c5c3; stroke:none;" d="M418 393L419 394L418 393z"/>
<path style="fill:#5f918b; stroke:none;" d="M420 393L421 394L420 393M379 394L380 395L379 394z"/>
<path style="fill:#b1c5c3; stroke:none;" d="M416 394L417 395L416 394z"/>
<path style="fill:#91afab; stroke:none;" d="M417 394L418 395L417 394z"/>
<path style="fill:#5f918b; stroke:none;" d="M418 394L419 395L418 394M381 395L389 400L389 399L381 395z"/>
<path style="fill:#b1c5c3; stroke:none;" d="M414 395L415 396L414 395z"/>
<path style="fill:#91afab; stroke:none;" d="M415 395L416 396L415 395z"/>
<path style="fill:#5f918b; stroke:none;" d="M416 395L417 396L416 395z"/>
<path style="fill:#91afab; stroke:none;" d="M383 396L384 397L383 396z"/>
<path style="fill:#b1c5c3; stroke:none;" d="M384 396L385 397L384 396M410 398L413 397L410 398z"/>
<path style="fill:#91afab; stroke:none;" d="M413 396L414 397L413 396z"/>
<path style="fill:#5f918b; stroke:none;" d="M414.667 396.333L415.333 396.667L414.667 396.333z"/>
<path style="fill:#b1c5c3; stroke:none;" d="M385 397L386 398L385 397z"/>
<path style="fill:#91afab; stroke:none;" d="M411 397L412 398L411 397z"/>
<path style="fill:#5f918b; stroke:none;" d="M412 397L413 398L412 397z"/>
<path style="fill:#91afab; stroke:none;" d="M387 398L388 399L387 398z"/>
<path style="fill:#b1c5c3; stroke:none;" d="M388 398L388 399L393 400L393 399L388 398M401 399L401 400L407 399L401 399z"/>
<path style="fill:#91afab; stroke:none;" d="M407.667 398.333L408.333 398.667L407.667 398.333z"/>
<path style="fill:#5f918b; stroke:none;" d="M409 398L409 399L412 399L409 398z"/>
<path style="fill:#91afab; stroke:none;" d="M389 399L390 400L389 399M404.667 399.333L405.333 399.667L404.667 399.333z"/>
<path style="fill:#5f918b; stroke:none;" d="M406.667 399.333L407.333 399.667L406.667 399.333M391 400L391 401L403 401L391 400z"/>
</svg>
