<?xml version="1.0" standalone="yes"?>
<svg xmlns="http://www.w3.org/2000/svg" width="512" height="512">
<path style="fill:#010101; stroke:none;" fill-opacity="0%" d="M0 0L0 512L512 512L512 0L0 0z"/>
<path style="fill:#ff0000; stroke:none;" d="M70 195C91.4032 184.877 109.659 173.564 134 171.17C144.236 170.163 153.77 170.335 164 171.089C168.3 171.406 173.79 173.725 178 172.357C182.337 170.948 185.572 166.286 189 163.464C195.698 157.949 203.15 153.041 211 149.32C246.805 132.348 291.712 136.793 322 163L323 163L384 102C368.545 82.8473 339.809 70.2639 317 62.6667C244.412 38.4893 161.881 60.3216 111.286 118C91.4141 140.654 79.0915 166.567 70 195z"/>
<path style="fill:#4385f5; stroke:none;" d="M323 162L323 163C350.348 190.348 362 217.5 362 256C376.372 257.818 389.19 261.762 399.714 272.286C423.747 296.319 418.795 336.025 390 353.934C374.455 363.603 357.532 362 340 362L256 362L256 448C312.733 448 379.435 458.645 431 430.691C492.476 397.364 518.895 313.868 489.219 251C482.274 236.286 473.187 222.782 461.83 211.09C455.904 204.988 446.294 200.305 441.934 192.985C437.392 185.358 435.762 175.196 432.138 167C424.978 150.804 415.394 135.607 404.079 122C400.219 117.357 390.533 103.207 384 103.207C378.411 103.207 370.681 114.319 367 118L323 162z"/>
<path style="fill:#010101; stroke:none;" fill-opacity="0%" d="M179 173C203.041 182.07 224.991 189.473 244 208.015C247.988 211.905 257.885 219.023 258.408 225C258.89 230.505 247.56 238.44 244 242C229.003 256.997 214.332 275.791 197 288C189.005 260.311 153.371 250.602 129 260.453C109.51 268.331 95.6916 288.779 96.2593 310C96.879 333.17 112.563 353.956 135 360.254C153.898 365.558 177.466 362 197 362L321 362C343.77 362 370.804 366.496 391 353.934C419.16 336.42 423.624 295.896 400.572 272.286C390.163 261.625 376.552 257.148 362 256C362 226.002 356.638 198.123 335.829 175C298.466 133.482 215.232 121.57 179 173z"/>
<path style="fill:#f4871a; stroke:none;" d="M128 357C120.334 353.692 113.734 348.479 108.468 342C68.7688 293.167 139.423 227.161 184.996 271.04C190.131 275.984 194.243 281.421 197 288C203.728 284.862 208.801 278.199 214 273L245 242C248.649 238.351 259.628 230.718 259.093 225C258.523 218.901 249.062 211.977 245 208.015C229.064 192.47 208.437 181.02 187 175.152C139.358 162.111 89.5399 175.732 53.0039 208.285C6.51052 249.711 -0.238373 318.764 26.7562 372C33.5665 385.431 41.2595 398.379 52 408.996C54.9304 411.893 60.4707 418.851 65 418.797C70.6413 418.73 78.2751 407.725 82 404C96.9974 389.003 115.791 374.332 128 357z"/>
<path style="fill:#35a953; stroke:none;" d="M66 421C120.371 459.936 192.752 448 256 448L256 362L161 362L141 361.384L128 358.788L111 374L81 404L66 421z"/>
</svg>
