<?xml version="1.0" standalone="yes"?>
<svg xmlns="http://www.w3.org/2000/svg" width="768" height="768">
<path style="fill:#010101; stroke:none;" fill-opacity="0%" d="M0 0L0 768L768 768L768 0L0 0z"/>
<path style="fill:#91d9f5; stroke:none;" d="M143 214L623 214C623 177.045 620.476 139.601 585 118.453C556.757 101.616 517.514 108 486 108L277 108C244.594 108 206.577 102.2 178 120.699C144.121 142.629 143 177.907 143 214z"/>
<path style="fill:#4da3db; stroke:none;" d="M143 240L143 340L623 340L623 240L143 240z"/>
<path style="fill:#2a5fa6; stroke:none;" d="M143 368L143 467L623 467L623 368L143 368M143 494C143 521.212 141.651 547.325 159.518 570C183.245 600.114 217.107 600 252 600L424 600L424 704C434.864 698.93 444.488 684.512 453 676C476.6 652.4 498.333 626.578 523 604.059C529.035 598.549 536.408 600.171 544 599.985C553.979 599.741 564.549 598.665 574 595.302C619.986 578.935 626 536.339 626 494L143 494z"/>
<path style="fill:#0101ff; stroke:none;" d="M621 546L622 547L621 546M165 576L166 577L165 576M584 590L585 591L584 590M580 592L581 593L580 592M219 599L220 600L219 599M496 630L497 631L496 630M464 663L465 664L464 663M433 695L434 696L433 695z"/>
</svg>
