<?xml version="1.0" standalone="yes"?>
<svg xmlns="http://www.w3.org/2000/svg" width="768" height="768">
<path style="fill:#010101; stroke:none;" fill-opacity="0%" d="M0 0L0 768L768 768L768 0L0 0z"/>
<path style="fill:#f58123; stroke:none;" d="M572 324C582.742 318.518 592.246 309.651 602 302.576C604.865 300.499 611.663 297.064 611.658 292.961C611.654 288.796 605.747 283.199 603.37 280L579.626 248C551.578 210.442 524.442 172.096 495.792 135C488.694 125.809 481.927 116.374 475.08 107C472.924 104.048 469.471 97.4745 465.816 96.331C460.103 94.5436 448.242 107.109 444 110.346C439.573 113.724 428.337 118.694 426.737 124.325C425.262 129.514 434.084 137.191 436.796 141C447.62 156.204 459.04 170.98 470.116 186C483.398 204.012 496.583 222.118 510.035 240C530.749 267.533 553.787 294.755 572 324z"/>
<path style="fill:#f8871a; stroke:none;" d="M461 97L462 98L461 97M470 101L471 102L470 101z"/>
<path style="fill:#ff0101; stroke:none;" d="M446 108L447 109L446 108z"/>
<path style="fill:#f8871a; stroke:none;" d="M445 109L446 110L445 109z"/>
<path style="fill:#ff0101; stroke:none;" d="M442 111L443 112L442 111z"/>
<path style="fill:#f8871a; stroke:none;" d="M441 112L442 113L441 112M478 112L479 113L478 112M479 113L480 114L479 113M438 114L439 115L438 114z"/>
<path style="fill:#ff0101; stroke:none;" d="M482 117L483 118L482 117z"/>
<path style="fill:#f8871a; stroke:none;" d="M430 120L431 121L430 120M425.333 124.667L425.667 125.333L425.333 124.667M487 124L488 125L487 124M493 132L494 133L493 132z"/>
<path style="fill:#ff0101; stroke:none;" d="M433 136L434 137L433 136z"/>
<path style="fill:#f8871a; stroke:none;" d="M434 137L435 138L434 137M436 140L437 141L436 140M437 141L438 142L437 141M501 143L502 144L501 143M502 144L503 145L502 144M442 148L443 149L442 148z"/>
<path style="fill:#ff0101; stroke:none;" d="M505 148L506 149L505 148z"/>
<path style="fill:#f8871a; stroke:none;" d="M445 152L446 153L445 152M448 156L449 157L448 156M516 163L517 164L516 163z"/>
<path style="fill:#ff0101; stroke:none;" d="M456 167L457 168L456 167z"/>
<path style="fill:#f8871a; stroke:none;" d="M457 168L458 169L457 168M459 171L460 172L459 171M460 172L461 173L460 172M373 174L371 177L373 174z"/>
<path style="fill:#ff0101; stroke:none;" d="M374 174L375 175L374 174z"/>
<path style="fill:#f8871a; stroke:none;" d="M524 174L525 175L524 174z"/>
<path style="fill:#f58123; stroke:none;" d="M342 212L342 213L473 322.246L531 371C541.193 365.839 549.188 351.728 556.385 343.004C558.505 340.435 563.94 335.86 562.694 332.075C561.365 328.033 555.149 324.73 552.039 322.095C543.089 314.51 533.927 307.178 525 299.573C489.998 269.753 453.935 241.172 419 211.271C408.676 202.434 398.051 193.947 387.576 185.29C384.318 182.598 379.315 176.436 375.004 175.921C370.897 175.431 367.249 181.388 364.986 184.089C357.245 193.33 349.53 202.584 342 212z"/>
<path style="fill:#f8871a; stroke:none;" d="M525 175L526 176L525 175M380 179L381 180L380 179M465 179L466 180L465 179z"/>
<path style="fill:#ff0101; stroke:none;" d="M528 179L529 180L528 179z"/>
<path style="fill:#f8871a; stroke:none;" d="M368 180L369 181L368 180M381 180L382 181L381 180M382 181L383 182L382 181M366 182L367 183L366 182M468 183L469 184L468 183M386 184L387 185L386 184M388 186L389 187L388 186M362 187L363 188L362 187M471 187L472 188L471 187z"/>
<path style="fill:#ff0101; stroke:none;" d="M361 188L362 189L361 188z"/>
<path style="fill:#f8871a; stroke:none;" d="M392 189L393 190L392 189M358 192L359 193L358 192M357 193L358 194L357 193z"/>
<path style="fill:#ff0101; stroke:none;" d="M356 194L357 195L356 194z"/>
<path style="fill:#f8871a; stroke:none;" d="M398 194L399 195L398 194M539 194L540 195L539 194M399 195L400 196L399 195z"/>
<path style="fill:#ff0101; stroke:none;" d="M479 198L480 199L479 198z"/>
<path style="fill:#f8871a; stroke:none;" d="M404 199L405 200L404 199M480 199L481 200L480 199z"/>
<path style="fill:#ff0101; stroke:none;" d="M351 200L352 201L351 200z"/>
<path style="fill:#f8871a; stroke:none;" d="M405 200L406 201L405 200M482 202L483 203L482 202M483 203L484 204L483 203M348 204L349 205L348 204M547 205L548 206L547 205M548 206L549 207L548 206M416 209L417 210L416 209M343 210L344 211L343 210M488 210L489 211L488 210z"/>
<path style="fill:#ff0101; stroke:none;" d="M551 210L552 211L551 210z"/>
<path style="fill:#f8871a; stroke:none;" d="M342 211L343 212L342 211M422 214L423 215L422 214M491 214L492 215L491 214M423 215L424 216L423 215M346 216L347 217L346 216M347 217L348 218L347 217M494 218L495 219L494 218M428 219L429 220L428 219M351 220L352 221L351 220M429 220L430 221L429 220z"/>
<path style="fill:#ff0101; stroke:none;" d="M353 222L354 223L353 222z"/>
<path style="fill:#f8871a; stroke:none;" d="M562 225L563 226L562 225z"/>
<path style="fill:#ff0101; stroke:none;" d="M359 227L360 228L359 227M502 229L503 230L502 229z"/>
<path style="fill:#f8871a; stroke:none;" d="M503 230L504 231L503 230M364 231L365 232L364 231z"/>
<path style="fill:#ff0101; stroke:none;" d="M365 232L366 233L365 232z"/>
<path style="fill:#f8871a; stroke:none;" d="M505 233L506 234L505 233M506 234L507 235L506 234M447 235L448 236L447 235M570 236L571 237L570 236z"/>
<path style="fill:#ff0101; stroke:none;" d="M371 237L372 238L371 237z"/>
<path style="fill:#f8871a; stroke:none;" d="M571 237L572 238L571 237M452 239L453 240L452 239M453 240L454 241L453 240M511 241L512 242L511 241z"/>
<path style="fill:#ff0101; stroke:none;" d="M574 241L575 242L574 241M377 242L378 243L377 242M457 243L458 244L457 243z"/>
<path style="fill:#f8871a; stroke:none;" d="M458 244L459 245L458 244M514 245L515 246L514 245z"/>
<path style="fill:#ff0101; stroke:none;" d="M383 247L384 248L383 247M463 248L464 249L463 248z"/>
<path style="fill:#f8871a; stroke:none;" d="M464 249L465 250L464 249M517 249L518 250L517 249M387 250L388 251L387 250M465 250L466 251L465 250M388 251L389 252L388 251z"/>
<path style="fill:#ff0101; stroke:none;" d="M389 252L390 253L389 252M469 253L470 254L469 253z"/>
<path style="fill:#f8871a; stroke:none;" d="M471 255L472 256L471 255M394 256L395 257L394 256M585 256L586 257L585 256M475 258L476 259L475 258z"/>
<path style="fill:#ff0101; stroke:none;" d="M525 260L526 261L525 260z"/>
<path style="fill:#f8871a; stroke:none;" d="M400 261L401 262L400 261M526 261L527 262L526 261M481 263L482 264L481 263M482 264L483 265L482 264M528 264L529 265L528 264M405 265L406 266L405 265M483 265L484 266L483 265M529 265L530 266L529 265M593 267L594 268L593 267M487 268L488 269L487 268M594 268L595 269L594 268M411 270L412 271L411 270M489 270L490 271L489 270M534 272L535 273L534 272z"/>
<path style="fill:#ff0101; stroke:none;" d="M597 272L598 273L597 272z"/>
<path style="fill:#f8871a; stroke:none;" d="M493 273L494 274L493 273M537 276L538 277L537 276z"/>
<path style="fill:#f58123; stroke:none;" d="M300 277L280 323C327.436 348.289 378.133 369.105 427 391.54C451.788 402.92 478.461 420.696 505 427L525 381C503.84 374.432 482.957 361.914 463 352.258C430.223 336.401 396.926 321.611 364 306.059C344.488 296.842 321.21 280.781 300 277z"/>
<path style="fill:#f8871a; stroke:none;" d="M499 278L500 279L499 278M500 279L501 280L500 279z"/>
<path style="fill:#ff0101; stroke:none;" d="M309 280L310 281L309 280z"/>
<path style="fill:#f8871a; stroke:none;" d="M540 280L541 281L540 280M313 282L314 283L313 282M506 284L507 285L506 284M296 285L297 286L296 285M430 286L431 287L430 286M295 287L296 288L295 287M608 287L609 288L608 287M326 288L327 289L326 288M328 289L329 290L328 289M330 290L331 291L330 290M435 290L436 291L435 290M332 291L333 292L332 291M436 291L437 292L436 291z"/>
<path style="fill:#ff0101; stroke:none;" d="M548 291L549 292L548 291z"/>
<path style="fill:#f8871a; stroke:none;" d="M334 292L335 293L334 292M549 292L550 293L549 292M612 294L613 295L612 294z"/>
<path style="fill:#ff0101; stroke:none;" d="M341 295L342 296L341 295z"/>
<path style="fill:#f8871a; stroke:none;" d="M441 295L442 296L441 295M551 295L552 296L551 295M291 296L292 297L291 296M442 296L443 297L442 296M552 296L553 297L552 296M345 297L346 298L345 297M608 297L609 298L608 297z"/>
<path style="fill:#ff0101; stroke:none;" d="M290 298L291 299L290 298z"/>
<path style="fill:#f8871a; stroke:none;" d="M347 298L348 299L347 298M523 298L524 299L523 298M524 299L525 300L524 299z"/>
<path style="fill:#ff0101; stroke:none;" d="M604 300L605 301L604 300z"/>
<path style="fill:#f8871a; stroke:none;" d="M448 301L449 302L448 301M358 303L359 304L358 303M529 303L530 304L529 303M557 303L558 304L557 303M530 304L531 305L530 304M287 305L288 306L287 305M362 305L363 306L362 305M597 305L598 306L597 305M364 306L365 307L364 306z"/>
<path style="fill:#ff0101; stroke:none;" d="M454 306L455 307L454 306z"/>
<path style="fill:#f8871a; stroke:none;" d="M286 307L287 308L286 307M560 307L561 308L560 307z"/>
<path style="fill:#ff0101; stroke:none;" d="M373 310L374 311L373 310M460 311L461 312L460 311z"/>
<path style="fill:#f8871a; stroke:none;" d="M563 311L564 312L563 311M377 312L378 313L377 312M379 313L380 314L379 313M283 314L284 315L283 314M585 314L586 315L585 314M465 315L466 316L465 315z"/>
<path style="fill:#ff0101; stroke:none;" d="M466 316L467 317L466 316z"/>
<path style="fill:#f8871a; stroke:none;" d="M581 317L582 318L581 317z"/>
<path style="fill:#ff0101; stroke:none;" d="M281 318L282 319L281 318z"/>
<path style="fill:#f8871a; stroke:none;" d="M390 318L391 319L390 318M548 319L549 320L548 319M578 319L579 320L578 319M394 320L395 321L394 320M577 320L578 321L577 320M396 321L397 322L396 321z"/>
<path style="fill:#ff0101; stroke:none;" d="M472 321L473 322L472 321z"/>
<path style="fill:#f8871a; stroke:none;" d="M398 322L399 323L398 322z"/>
<path style="fill:#ff0101; stroke:none;" d="M571 322L572 323L571 322z"/>
<path style="fill:#f8871a; stroke:none;" d="M553 323L554 324L553 323M554 324L555 325L554 324M285 325L286 326L285 325z"/>
<path style="fill:#ff0101; stroke:none;" d="M405 325L406 326L405 325z"/>
<path style="fill:#f8871a; stroke:none;" d="M287 326L288 327L287 326z"/>
<path style="fill:#ff0101; stroke:none;" d="M478 326L479 327L478 326M558 327L559 328L558 327z"/>
<path style="fill:#f8871a; stroke:none;" d="M559 328L560 329L559 328M482 329L483 330L482 329M483 330L484 331L483 330z"/>
<path style="fill:#ff0101; stroke:none;" d="M484 331L485 332L484 331z"/>
<path style="fill:#f8871a; stroke:none;" d="M302 333L303 334L302 333M422 333L423 334L422 333M489 335L490 336L489 335M428 336L429 337L428 336M311 337L312 338L311 337M560 337L561 338L560 337M313 338L314 339L313 338M317 340L318 341L317 340z"/>
<path style="fill:#ff0101; stroke:none;" d="M437 340L438 341L437 340z"/>
<path style="fill:#f8871a; stroke:none;" d="M495 340L496 341L495 340M439 341L440 342L439 341M556 342L557 343L556 342M500 344L501 345L500 344M328 345L329 346L328 345M332 347L333 348L332 347z"/>
<path style="fill:#ff0101; stroke:none;" d="M452 347L453 348L452 347z"/>
<path style="fill:#f8871a; stroke:none;" d="M454 348L455 349L454 348M551 348L552 349L551 348M456 349L457 350L456 349M506 349L507 350L506 349M550 349L551 350L550 349M341 351L342 352L341 351M345 353L346 354L345 353z"/>
<path style="fill:#ff0101; stroke:none;" d="M547 353L548 354L547 353M347 354L348 355L347 354z"/>
<path style="fill:#f8871a; stroke:none;" d="M469 355L470 356L469 355M471 356L472 357L471 356M354 357L355 358L354 357M475 358L476 359L475 358M358 359L359 360L358 359M477 359L478 360L477 359z"/>
<path style="fill:#ff0101; stroke:none;" d="M542 359L543 360L542 359z"/>
<path style="fill:#f8871a; stroke:none;" d="M360 360L361 361L360 360z"/>
<path style="fill:#ff0101; stroke:none;" d="M484 362L485 363L484 362z"/>
<path style="fill:#f8871a; stroke:none;" d="M488 364L489 365L488 364M524 364L525 365L524 364M537 365L538 366L537 365M373 366L374 367L373 366M536 366L537 367L536 366M375 367L376 368L375 367M535 367L536 368L535 367M530 369L531 370L530 369z"/>
<path style="fill:#ff0101; stroke:none;" d="M501 370L502 371L501 370z"/>
<path style="fill:#f8871a; stroke:none;" d="M384 371L385 372L384 371M503 371L504 372L503 371M386 372L387 373L386 372M505 372L506 373L505 372M507 373L508 374L507 373M390 374L391 375L390 374M509 374L510 375L509 374z"/>
<path style="fill:#ff0101; stroke:none;" d="M516 377L517 378L516 377z"/>
<path style="fill:#f8871a; stroke:none;" d="M520 379L521 380L520 379M522 380L523 381L522 380M405 381L406 382L405 381M414 385L415 386L414 385M418 387L419 388L418 387z"/>
<path style="fill:#ff0101; stroke:none;" d="M420 388L421 389L420 388z"/>
<path style="fill:#f8871a; stroke:none;" d="M522 388L523 389L522 388z"/>
<path style="fill:#f58123; stroke:none;" d="M258 389L250.789 424L249.067 437.262L266 441.997L312 451.6L490 489L501 439L448 428.004L330 403.576L258 389z"/>
<path style="fill:#f8871a; stroke:none;" d="M262 389L263 390L262 389M267 390L268 391L267 390M521 390L522 391L521 390z"/>
<path style="fill:#ff0101; stroke:none;" d="M257 391L258 392L257 391z"/>
<path style="fill:#f8871a; stroke:none;" d="M427 391L428 392L427 391z"/>
<path style="fill:#ff0101; stroke:none;" d="M277 392L278 393L277 392z"/>
<path style="fill:#f8871a; stroke:none;" d="M281 393L282 394L281 393M431 393L432 394L431 393M433 394L434 395L433 394M296 396L297 397L296 396M305 398L306 399L305 398M517 399L518 400L517 399M315 400L316 401L315 400M446 400L447 401L446 400M255 401L256 402L255 401M320 401L321 402L320 401M448 401L449 402L448 401M329 403L330 404L329 403M334 404L335 405L334 404M254 406L255 407L254 406z"/>
<path style="fill:#ff0101; stroke:none;" d="M344 406L345 407L344 406z"/>
<path style="fill:#f8871a; stroke:none;" d="M459 406L460 407L459 406M348 407L349 408L348 407M353 408L354 409L353 408M463 408L464 409L463 408z"/>
<path style="fill:#ff0101; stroke:none;" d="M253 410L254 411L253 410z"/>
<path style="fill:#f8871a; stroke:none;" d="M363 410L364 411L363 410z"/>
<path style="fill:#ff0101; stroke:none;" d="M512 410L513 411L512 410z"/>
<path style="fill:#f8871a; stroke:none;" d="M372 412L373 413L372 412M472 412L473 413L472 412M382 414L383 415L382 414z"/>
<path style="fill:#ff0101; stroke:none;" d="M387 415L388 416L387 415z"/>
<path style="fill:#f8871a; stroke:none;" d="M478 415L479 416L478 415M509 416L510 417L509 416M396 417L397 418L396 417M401 418L402 419L401 418M406 419L407 420L406 419M251 420L252 421L251 420z"/>
<path style="fill:#ff0101; stroke:none;" d="M411 420L412 421L411 420z"/>
<path style="fill:#f8871a; stroke:none;" d="M415 421L416 422L415 421M491 421L492 422L491 421M420 422L421 423L420 422z"/>
<path style="fill:#ff0101; stroke:none;" d="M493 422L494 423L493 422z"/>
<path style="fill:#f8871a; stroke:none;" d="M506 423L507 424L506 423M430 424L431 425L430 424M250 425L251 426L250 425M505 425L506 426L505 425M439 426L440 427L439 426M502 426L503 427L502 426z"/>
<path style="fill:#ff0101; stroke:none;" d="M249 429L250 430L249 429M454 429L455 430L454 429z"/>
<path style="fill:#f8871a; stroke:none;" d="M463 431L464 432L463 431M468 432L469 433L468 432M473 433L474 434L473 433z"/>
<path style="fill:#ff0101; stroke:none;" d="M478 434L479 435L478 434z"/>
<path style="fill:#f8871a; stroke:none;" d="M487 436L488 437L487 436M492 437L493 438L492 437M249 438L250 439L249 438M497 438L498 439L497 438M254 439L255 440L254 439M259 440L260 441L259 440M500 441L501 442L500 441M268 442L269 443L268 442M273 443L274 444L273 443M302 449L303 450L302 449z"/>
<path style="fill:#bdbbbb; stroke:none;" d="M144 451L144 650L590 650L590 451L540 451L540 600L194 600L194 451L144 451z"/>
<path style="fill:#f8871a; stroke:none;" d="M311 451L312 452L311 451M316 452L317 453L316 452M321 453L322 454L321 453M326 454L327 455L326 454M335 456L336 457L335 456z"/>
<path style="fill:#ff0101; stroke:none;" d="M497 456L498 457L497 456z"/>
<path style="fill:#f8871a; stroke:none;" d="M340 457L341 458L340 457M496 460L497 461L496 460M378 465L379 466L378 465M383 466L384 467L383 466M388 467L389 468L388 467M393 468L394 469L393 468M407 471L408 472L407 471z"/>
<path style="fill:#ff0101; stroke:none;" d="M493 475L494 476L493 475z"/>
<path style="fill:#f8871a; stroke:none;" d="M445 479L446 480L445 479M492 479L493 480L492 479M450 480L451 481L450 480M455 481L456 482L455 481M474 485L475 486L474 485M479 486L480 487L479 486M488 488L489 489L488 488M490 488L491 489L490 488z"/>
<path style="fill:#f58123; stroke:none;" d="M243 501L243 551L491 551L491 501L243 501z"/>
</svg>
