<?xml version="1.0" standalone="no"?>
<!DOCTYPE svg PUBLIC "-//W3C//DTD SVG 20010904//EN"
 "http://www.w3.org/TR/2001/REC-SVG-20010904/DTD/svg10.dtd">
<svg version="1.0" xmlns="http://www.w3.org/2000/svg"
 width="24.000000pt" height="24.000000pt" viewBox="0 0 24.000000 24.000000"
 preserveAspectRatio="xMidYMid meet">

<g transform="translate(0.000000,24.000000) scale(0.100000,-0.100000)"
fill="#000000" stroke="none">
<path d="M59 225 c-14 -8 -33 -24 -41 -37 l-15 -23 117 0 117 0 -15 23 c-32
48 -109 66 -163 37z m127 -33 c-4 -3 -14 2 -24 12 -16 18 -16 18 6 6 13 -6 21
-14 18 -18z m-111 8 c-3 -5 -11 -10 -16 -10 -6 0 -7 5 -4 10 3 6 11 10 16 10
6 0 7 -4 4 -10z m35 0 c0 -5 -5 -10 -11 -10 -5 0 -7 5 -4 10 3 6 8 10 11 10 2
0 4 -4 4 -10z m35 0 c3 -5 1 -10 -4 -10 -6 0 -11 5 -11 10 0 6 2 10 4 10 3 0
8 -4 11 -10z"/>
<path d="M1 135 c0 -5 4 -17 10 -25 9 -12 12 -13 16 -1 5 11 7 11 14 0 8 -12
11 -11 19 1 5 8 10 18 10 21 0 8 -32 5 -47 -4 -6 -4 -14 -1 -16 5 -3 7 -6 9
-6 3z"/>
<path d="M93 125 c1 -13 10 -19 27 -19 17 0 26 6 28 19 2 15 1 17 -6 6 -8 -11
-10 -11 -15 0 -5 12 -7 12 -15 0 -8 -11 -11 -11 -16 0 -3 8 -5 6 -3 -6z"/>
<path d="M170 130 c0 -3 5 -12 11 -20 9 -12 12 -13 16 -1 5 11 7 11 14 0 8
-12 11 -11 19 1 15 23 13 25 -25 25 -19 0 -35 -2 -35 -5z"/>
<path d="M0 85 c0 -3 7 -17 16 -31 36 -54 113 -69 171 -34 34 20 59 57 47 68
-4 4 -9 1 -11 -5 -6 -15 -43 -17 -43 -3 0 6 -8 5 -19 -2 -15 -9 -23 -9 -34 1
-12 9 -16 9 -20 -1 -3 -11 -8 -11 -26 0 -12 7 -21 8 -21 2 0 -5 -9 -10 -20
-10 -11 0 -20 5 -20 10 0 6 -4 10 -10 10 -5 0 -10 -2 -10 -5z m70 -40 c7 -8 8
-15 2 -15 -5 0 -15 7 -22 15 -7 8 -8 15 -2 15 5 0 15 -7 22 -15z m40 -1 c0 -8
-4 -12 -10 -9 -5 3 -10 10 -10 16 0 5 5 9 10 9 6 0 10 -7 10 -16z m40 7 c0 -6
-4 -13 -10 -16 -5 -3 -10 1 -10 9 0 9 5 16 10 16 6 0 10 -4 10 -9z m45 -1 c-3
-5 -16 -15 -28 -21 -22 -12 -22 -12 -3 10 19 21 43 30 31 11z"/>
</g>
</svg>
